<svg xmlns="http://www.w3.org/2000/svg" fill="none" height="538" width="260"><rect stroke-width="2" stroke="#2B3139" rx="38.381" height="536" width="258" y="1" x="1"/><rect fill="#181A20" rx="32" height="520" width="240" y="9" x="10.001"/><rect fill="#181A20" rx="32" height="520" width="240" y="9" x="10.001"/><g clip-path="url(#clip0_4206_116534)"><rect fill="#181A20" rx="32" height="520" width="240" y="9" x="10"/><rect stroke-width=".64" stroke="#EAECEF" rx="1.387" height="6.618" width="13.44" y="20.42" x="225.573" opacity=".35"/><path fill="#EAECEF" d="M239.973 22.448v2.562a1.39 1.39 0 000-2.562" opacity=".4"/><rect fill="#EAECEF" rx=".853" height="4.696" width="11.52" y="21.381" x="226.533"/><path fill="#EAECEF" d="M217.147 21.561c1.424 0 2.793.547 3.825 1.528a.197.197 0 00.278-.002l.743-.75a.203.203 0 00.06-.146.205.205 0 00-.061-.146 7.004 7.004 0 00-9.69 0 .206.206 0 00-.002.293l.743.75a.197.197 0 00.278.001 5.554 5.554 0 013.826-1.528zm0 2.439c.782 0 1.537.29 2.116.815a.2.2 0 00.279-.003l.742-.75a.208.208 0 00-.003-.295 4.602 4.602 0 00-6.267 0 .206.206 0 00-.002.295l.741.75a.2.2 0 00.279.003 3.152 3.152 0 012.115-.815zm1.486 1.64a.204.204 0 01-.06.148l-1.284 1.295a.198.198 0 01-.284 0l-1.284-1.295a.202.202 0 01.006-.294 2.2 2.2 0 012.84 0c.041.038.065.09.066.146zM208.4 20.314h-.64a.64.64 0 00-.64.64v5.55c0 .354.287.64.64.64h.64a.64.64 0 00.64-.64v-5.55a.64.64 0 00-.64-.64zm-3.627 1.494h.64a.64.64 0 01.64.64v4.056a.64.64 0 01-.64.64h-.64a.64.64 0 01-.64-.64v-4.056a.64.64 0 01.64-.64zm-2.346 1.494h-.64a.64.64 0 00-.64.64v2.562c0 .354.286.64.64.64h.64a.64.64 0 00.64-.64v-2.562a.64.64 0 00-.64-.64zm-2.987 1.28h-.64a.64.64 0 00-.64.641v1.281c0 .354.287.64.64.64h.64a.64.64 0 00.64-.64v-1.28a.64.64 0 00-.64-.641z" clip-rule="evenodd" fill-rule="evenodd"/><path fill="#EAECEF" d="M26.775 25.596h.09c.5 0 .905-.07 1.218-.21a1.73 1.73 0 00.722-.568c.169-.237.284-.505.347-.802.062-.3.093-.607.093-.923v-1.045c0-.31-.035-.585-.107-.825a1.784 1.784 0 00-.29-.605 1.29 1.29 0 00-.418-.37 1.03 1.03 0 00-.497-.127c-.2 0-.38.04-.539.122-.156.078-.29.19-.398.333a1.587 1.587 0 00-.244.506 2.26 2.26 0 00-.085.633c0 .203.025.4.075.59.05.191.127.363.23.516.103.153.231.275.384.366.157.087.34.131.549.131.194 0 .375-.037.544-.112a1.575 1.575 0 00.914-1.299h.412c0 .26-.051.516-.154.769-.1.25-.241.478-.422.684a2.145 2.145 0 01-.638.497c-.244.122-.51.183-.797.183-.337 0-.63-.066-.876-.197a1.771 1.771 0 01-.61-.525 2.399 2.399 0 01-.351-.731 3.09 3.09 0 01-.113-.825c0-.325.046-.63.136-.914.09-.285.225-.535.403-.75a1.83 1.83 0 01.661-.511c.266-.122.572-.183.919-.183.39 0 .724.078.998.234.275.157.499.366.67.628.176.263.304.558.385.886a4.2 4.2 0 01.122 1.013v.314c0 .353-.023.713-.07 1.078-.044.363-.13.71-.258 1.04a2.737 2.737 0 01-.549.891c-.24.26-.554.466-.942.62-.384.15-.86.224-1.425.224h-.089v-.736zm4.402.267a.53.53 0 01.136-.37c.094-.103.228-.155.403-.155.175 0 .308.052.398.155a.52.52 0 01.141.37.515.515 0 01-.14.366c-.091.1-.224.15-.399.15-.175 0-.31-.05-.403-.15a.525.525 0 01-.136-.366zm.005-4.139c0-.147.045-.27.136-.37.093-.103.228-.155.403-.155.175 0 .308.052.398.155.094.1.14.223.14.37a.515.515 0 01-.14.366c-.09.1-.223.15-.398.15-.175 0-.31-.05-.403-.15a.525.525 0 01-.136-.366zm6.684 2.302v.712h-4.931v-.51l3.056-4.73h.708l-.76 1.368-2.02 3.16h3.947zm-.951-4.528v6.825h-.867v-6.825h.867zm4.397-.038v6.863h-.867v-5.78l-1.749.638v-.783l2.48-.938h.136z"/><path fill="#181A20" d="M10 9h240v28.16H10z"/><rect stroke-width=".64" stroke="#EAECEF" rx="1.387" height="6.613" width="13.44" y="20.413" x="225.573" opacity=".35"/><path fill="#EAECEF" d="M239.973 22.44V25a1.389 1.389 0 000-2.56" opacity=".4"/><rect fill="#EAECEF" rx=".853" height="4.693" width="11.52" y="21.373" x="226.533"/><path fill="#EAECEF" d="M217.147 21.554a5.55 5.55 0 013.825 1.527.198.198 0 00.278-.003l.743-.748a.203.203 0 00.06-.147.205.205 0 00-.061-.146 7.007 7.007 0 00-9.69 0 .206.206 0 00-.002.293l.743.748a.197.197 0 00.278.003 5.556 5.556 0 013.826-1.527zm0 2.437c.782 0 1.537.29 2.116.815a.2.2 0 00.279-.004l.742-.749a.208.208 0 00-.003-.295 4.604 4.604 0 00-6.267 0 .206.206 0 00-.002.295l.741.749a.2.2 0 00.279.004 3.153 3.153 0 012.115-.816zm1.486 1.64a.2.2 0 01-.06.147l-1.284 1.294a.198.198 0 01-.142.06.198.198 0 01-.142-.06l-1.284-1.294a.201.201 0 01.006-.293 2.2 2.2 0 012.84 0c.041.037.065.09.066.145zM208.4 20.307h-.64a.64.64 0 00-.64.64v5.546c0 .354.286.64.64.64h.64a.64.64 0 00.64-.64v-5.546a.64.64 0 00-.64-.64zm-3.627 1.493h.64a.64.64 0 01.64.64v4.053a.64.64 0 01-.64.64h-.64a.64.64 0 01-.64-.64V22.44a.64.64 0 01.64-.64zm-2.346 1.493h-.64a.64.64 0 00-.64.64v2.56c0 .354.286.64.64.64h.64a.64.64 0 00.64-.64v-2.56a.64.64 0 00-.64-.64zm-2.987 1.28h-.64a.64.64 0 00-.64.64v1.28c0 .354.286.64.64.64h.64a.64.64 0 00.64-.64v-1.28a.64.64 0 00-.64-.64z" clip-rule="evenodd" fill-rule="evenodd"/><path fill="#fff" d="M32.921 26.92c1.697 0 2.705-1.335 2.705-3.599 0-2.223-1.072-3.441-2.668-3.441-1.451 0-2.478.981-2.478 2.353 0 1.288.925 2.227 2.196 2.227.782 0 1.415-.363 1.73-1h.078c-.014 1.577-.573 2.479-1.549 2.479-.573 0-1.03-.316-1.174-.828h-1.188c.194 1.093 1.128 1.809 2.348 1.809zm.042-3.385c-.777 0-1.313-.549-1.313-1.34 0-.757.564-1.338 1.318-1.338.753 0 1.317.59 1.317 1.362 0 .762-.55 1.316-1.322 1.316zm4.758-1.12c.44 0 .74-.308.74-.721 0-.414-.3-.721-.74-.721-.435 0-.74.307-.74.72 0 .414.305.721.74.721zm0 3.412c.44 0 .74-.311.74-.72 0-.414-.3-.721-.74-.721-.435 0-.74.307-.74.72 0 .41.305.721.74.721zm5.35.93h1.142V25.47h.901v-.99h-.901v-4.432H42.53a89.55 89.55 0 00-2.72 4.441v.981h3.26v1.288zm-2.155-2.32a73.327 73.327 0 012.108-3.432h.065v3.502h-2.173v-.07zm6.931 2.32h1.193v-6.71h-1.188l-1.743 1.233v1.13l1.66-1.181h.078v5.528z"/><circle fill-opacity=".1" fill="#848E9C" transform="matrix(1 0 0 -1 19.6 58.92)" r="7.68" cy="7.68" cx="7.68"/><path fill="#76808F" d="M33.852 55.213a7.676 7.676 0 01-6.573 3.707 7.676 7.676 0 01-6.574-3.707 3.072 3.072 0 012.734-1.67h1.536l2.304 2.305 2.304-2.304h1.536a3.07 3.07 0 012.733 1.67z"/><path fill="url(#paint0_linear_4206_116534)" d="M29.724 46.108a3.456 3.456 0 10-4.888 4.888 3.456 3.456 0 004.888-4.888z" clip-rule="evenodd" fill-rule="evenodd"/><path fill="#76808F" d="M29.723 46.108a3.456 3.456 0 00-4.888 4.888l4.887-4.888zm-4.748 12.46v-5.024l2.304 2.304 2.304-2.304v5.024a7.675 7.675 0 01-2.304.352 7.675 7.675 0 01-2.304-.352z"/><path fill="#929AA5" d="M24.975 58.568v-5.024l2.304 2.304 2.304-2.304v5.024a7.678 7.678 0 01-2.304.352 7.678 7.678 0 01-2.304-.352z"/><path fill="#707A8A" d="M209.04 47.4a3.2 3.2 0 110 6.4 3.2 3.2 0 010-6.4zm0-1.92a5.12 5.12 0 014.493 7.576l1.965 1.966-1.018 1.018-1.018 1.018-1.965-1.965a5.12 5.12 0 11-2.457-9.613zm20.726 1.034h1.772v1.772h-1.772v1.772h-1.773v-3.544h1.773zm4.135 0h3.544v3.544h-1.772v-1.772h-1.772v-1.772zm-2.363 7.68h-1.773V52.42h-1.772v3.545h3.545v-1.772zm2.363 0h1.772V52.42h1.772v3.545h-3.544v-1.772zm1.181-3.84h-4.726v1.772h4.726v-1.772z" clip-rule="evenodd" fill-rule="evenodd"/><path fill="#EAECEF" d="M24.04 89.008V93.8h-.646v-4.792h-1.705v-.569h4.055v.569h-1.705zm3.523 4.884c-1.06 0-1.79-.814-1.79-2.073 0-1.26.73-2.074 1.79-2.074s1.79.814 1.79 2.074c0 1.26-.73 2.073-1.79 2.073zm0-.545c.66 0 1.129-.407 1.129-1.244v-.569c0-.837-.469-1.244-1.13-1.244-.66 0-1.128.407-1.128 1.244v.569c0 .837.468 1.244 1.129 1.244zm3.675.453c-.422 0-.652-.269-.652-.653v-2.772h-.653v-.538h.368c.262 0 .346-.092.346-.36v-.738h.553v1.098h.868v.538H31.2v2.887h.806v.538h-.768zm4.697 0c-.453 0-.637-.276-.683-.645h-.039c-.169.484-.591.737-1.144.737-.837 0-1.329-.46-1.329-1.198 0-.745.538-1.16 1.69-1.16h.783v-.391c0-.56-.307-.868-.937-.868-.476 0-.79.23-1.006.591l-.368-.345c.215-.423.69-.776 1.405-.776.953 0 1.52.5 1.52 1.336v2.181h.454v.538h-.346zm-1.766-.43c.607 0 1.044-.315 1.044-.722v-.653H34.4c-.699 0-1.013.215-1.013.6v.16c0 .392.307.615.783.615zm3.642.43c-.423 0-.653-.269-.653-.637v-5.046h.614v5.145h.584v.538h-.545zm3.316-5.36h2.204c.883 0 1.428.545 1.428 1.382 0 .799-.514 1.083-.867 1.136v.046c.384.024 1.052.354 1.052 1.245 0 .883-.592 1.551-1.383 1.551h-2.434v-5.36zm.645 2.319h1.482c.507 0 .814-.269.814-.745v-.261c0-.477-.307-.745-.814-.745h-1.482v1.75zm0 2.473h1.59c.553 0 .89-.292.89-.83v-.26c0-.538-.337-.83-.89-.83h-1.59v1.92zm7.19.568c-.452 0-.637-.276-.683-.645h-.038c-.17.484-.591.737-1.144.737-.837 0-1.33-.46-1.33-1.198 0-.745.538-1.16 1.69-1.16h.784v-.391c0-.56-.307-.868-.937-.868-.476 0-.791.23-1.006.591l-.369-.345c.215-.423.691-.776 1.406-.776.952 0 1.52.5 1.52 1.336v2.181h.453v.538h-.345zm-1.766-.43c.607 0 1.045-.315 1.045-.722v-.653h-.814c-.7 0-1.014.215-1.014.6v.16c0 .392.307.615.783.615zm3.642.43c-.422 0-.653-.269-.653-.637v-5.046h.615v5.145h.583v.538h-.545zm4.32 0c-.453 0-.638-.276-.684-.645h-.038c-.17.484-.592.737-1.144.737-.837 0-1.33-.46-1.33-1.198 0-.745.538-1.16 1.69-1.16h.784v-.391c0-.56-.307-.868-.937-.868-.476 0-.791.23-1.006.591l-.369-.345c.215-.423.691-.776 1.406-.776.952 0 1.52.5 1.52 1.336v2.181h.453v.538h-.345zm-1.767-.43c.607 0 1.045-.315 1.045-.722v-.653h-.814c-.7 0-1.014.215-1.014.6v.16c0 .392.307.615.783.615zm2.99.43v-3.963h.614v.645h.03c.192-.445.53-.737 1.122-.737.814 0 1.328.553 1.328 1.513V93.8h-.614v-2.434c0-.707-.307-1.068-.899-1.068-.491 0-.967.246-.967.753V93.8h-.615zm5.839.092c-1.114 0-1.767-.806-1.767-2.073 0-1.268.653-2.074 1.767-2.074.783 0 1.252.384 1.482.93l-.514.26c-.146-.407-.484-.645-.968-.645-.73 0-1.106.5-1.106 1.19v.676c0 .692.376 1.19 1.106 1.19.5 0 .86-.237 1.075-.69l.445.3c-.253.568-.768.936-1.52.936zm3.833 0c-1.075 0-1.782-.814-1.782-2.073 0-1.26.707-2.074 1.782-2.074 1.06 0 1.712.814 1.712 1.935v.292h-2.849v.184c0 .684.438 1.199 1.175 1.199.5 0 .883-.246 1.09-.684l.439.315c-.254.538-.822.906-1.567.906zm0-3.632c-.668 0-1.137.506-1.137 1.198v.053h2.189v-.084c0-.699-.422-1.167-1.052-1.167z"/><path fill="#707A8A" d="M74.92 91.987a1.067 1.067 0 100-2.134 1.067 1.067 0 000 2.134z"/><path fill="#707A8A" d="M72.597 88.492l-2.37 2.428 2.37 2.428a3.23 3.23 0 004.646 0l2.37-2.428-2.37-2.428a3.23 3.23 0 00-4.646 0zm4.456 2.428a2.133 2.133 0 11-4.267 0 2.133 2.133 0 014.267 0z" clip-rule="evenodd" fill-rule="evenodd"/><path fill="#EAECEF" d="M26.108 117.55v-1.595c-1.81-.144-3.011-.914-3.907-1.954l1.451-1.326c.7.807 1.56 1.344 2.617 1.488v-3.638c-2.616-.556-3.71-1.685-3.71-3.441 0-1.899 1.308-3.118 3.549-3.369v-1.613h1.774v1.613c1.487.162 2.562.753 3.369 1.739l-1.47 1.272c-.466-.574-1.11-1.022-2.06-1.219v3.333c2.544.592 3.709 1.595 3.709 3.441 0 1.846-1.2 3.279-3.548 3.62v1.649h-1.774zm-1.38-10.555c0 .842.483 1.236 1.54 1.523v-3.029c-1.02.18-1.54.699-1.54 1.506zm4.551 5.447c0-.716-.358-1.272-1.559-1.595v3.298c1.004-.215 1.56-.86 1.56-1.703zm9.294-8.87c.125 0 .215.09.215.215v12.078c0 .125-.09.215-.215.215h-1.63a.207.207 0 01-.216-.215v-9.981l-2.258 2.06c-.125.126-.269.054-.269-.125v-1.971a.38.38 0 01.126-.269l2.204-1.9a.327.327 0 01.25-.107h1.793zm8.014 12.723c-2.025 0-3.656-1.38-3.656-3.638v-5.662c0-2.258 1.63-3.638 3.656-3.638 2.043 0 3.673 1.38 3.673 3.638v5.662c0 2.258-1.63 3.638-3.673 3.638zm0-2.079c1.057 0 1.684-.77 1.684-1.881v-5.018c0-1.111-.627-1.881-1.684-1.881-1.04 0-1.667.77-1.667 1.881v5.018c0 1.111.627 1.881 1.667 1.881zm8.551 2.688a.321.321 0 01-.125.269l-2.15 1.667c-.144.107-.27.036-.27-.144v-4.946c0-.125.09-.215.216-.215h2.114c.126 0 .215.09.215.215v3.154zm9.682-13.332c.126 0 .215.09.215.215v1.236a.79.79 0 01-.053.269l-4.05 10.627c-.036.107-.126.161-.251.161h-1.846c-.161 0-.233-.09-.18-.251l3.961-10.304h-3.028v1.398c0 .125-.09.215-.215.215h-1.577a.207.207 0 01-.215-.215v-3.136c0-.125.09-.215.215-.215h7.024zm5.882 12.723c-2.186 0-3.907-1.398-3.907-3.691 0-1.524.842-2.455 1.738-2.993-.824-.502-1.523-1.398-1.523-2.742 0-2.114 1.613-3.512 3.692-3.512s3.71 1.398 3.71 3.512c0 1.344-.7 2.24-1.524 2.742.896.538 1.738 1.469 1.738 2.993 0 2.293-1.738 3.691-3.924 3.691zm0-7.741c.932 0 1.595-.681 1.595-1.631 0-.932-.663-1.631-1.595-1.631-.932 0-1.577.699-1.577 1.631 0 .95.645 1.631 1.577 1.631zm0 5.788c.985 0 1.756-.789 1.756-1.792 0-.986-.77-1.774-1.756-1.774s-1.756.788-1.756 1.774c0 1.003.77 1.792 1.756 1.792zm9.555-10.985c2.222 0 3.727 1.541 3.727 3.763 0 .896-.215 1.702-.878 3.029l-2.85 5.77a.27.27 0 01-.25.161h-1.81c-.161 0-.233-.09-.161-.251l2.526-5.053a2.934 2.934 0 01-.716.071c-1.918 0-3.298-1.523-3.298-3.637 0-2.312 1.488-3.853 3.71-3.853zm.018 5.501c.914 0 1.47-.645 1.47-1.702 0-1.004-.556-1.702-1.47-1.702-.914 0-1.488.68-1.488 1.702 0 1.057.556 1.702 1.488 1.702zm8.64 7.007a.207.207 0 01-.214.215h-2.222a.207.207 0 01-.215-.215v-2.222c0-.125.09-.215.215-.215H88.7c.125 0 .215.09.215.215v2.222zm7.53-12.293c.126 0 .215.09.215.215v12.078c0 .125-.09.215-.215.215h-1.63a.207.207 0 01-.215-.215v-9.981l-2.258 2.06c-.126.126-.27.054-.27-.125v-1.971c0-.108.055-.197.126-.269l2.205-1.9a.327.327 0 01.25-.107h1.792zm11.544 10.537c.126 0 .216.089.216.215v1.541c0 .125-.09.215-.216.215h-6.917a.207.207 0 01-.215-.215v-1.613c0-.107.018-.197.09-.269l4.587-5.698c.395-.484.556-.896.556-1.416 0-1.003-.591-1.613-1.541-1.613-.86 0-1.47.574-1.541 1.452-.018.143-.108.215-.233.215h-1.685c-.125 0-.215-.072-.215-.215.108-2.007 1.541-3.351 3.674-3.351 2.204 0 3.656 1.398 3.656 3.548 0 .95-.287 1.595-1.201 2.724l-3.656 4.48h4.641z"/><path fill="#EAECEF" d="M236.56 103.081l-4.525 4.525-1.132-1.131 2.595-2.595h-8.459v-1.6h8.458l-2.594-2.594 1.132-1.132 4.525 4.526v.001z" clip-rule="evenodd" fill-rule="evenodd"/><path fill="#848E9C" d="M33.06 158.559h2.373c.884 0 1.429.546 1.429 1.383 0 .806-.492 1.098-.93 1.136v.047c.438.015 1.122.353 1.122 1.251 0 .868-.591 1.544-1.382 1.544H33.06v-5.361zm.868 2.266h1.344c.423 0 .676-.23.676-.637v-.246c0-.407-.253-.638-.676-.638h-1.344v1.521zm0 2.35h1.49c.446 0 .722-.246.722-.683v-.262c0-.437-.276-.683-.722-.683h-1.49v1.628zm4.556-3.963c-.346 0-.5-.184-.5-.438v-.13c0-.254.154-.438.5-.438.345 0 .491.184.491.438v.13c0 .254-.146.438-.491.438zm-.423.714h.838v3.994h-.838v-3.994zm2.033 3.994v-3.994h.837v.661h.038c.17-.43.507-.753 1.122-.753.814 0 1.298.569 1.298 1.552v2.534h-.838v-2.427c0-.622-.238-.937-.752-.937-.438 0-.868.223-.868.691v2.673h-.837zm7.381 0c-.438 0-.668-.276-.722-.668h-.038c-.154.499-.584.76-1.168.76-.821 0-1.29-.468-1.29-1.19 0-.791.592-1.198 1.705-1.198h.722v-.338c0-.484-.261-.768-.822-.768-.468 0-.752.23-.952.545l-.5-.453c.262-.445.73-.776 1.506-.776 1.03 0 1.605.507 1.605 1.398v2.005h.422v.683h-.468zm-1.69-.545c.515 0 .899-.246.899-.638v-.576h-.707c-.583 0-.867.192-.867.538v.138c0 .353.26.538.675.538zm2.979.545v-3.994h.837v.661h.038c.17-.43.507-.753 1.122-.753.814 0 1.298.569 1.298 1.552v2.534h-.837v-2.427c0-.622-.239-.937-.753-.937-.438 0-.868.223-.868.691v2.673h-.837zm5.999.092c-1.152 0-1.813-.814-1.813-2.089s.66-2.089 1.813-2.089c.798 0 1.305.392 1.543.983l-.69.323c-.116-.369-.4-.607-.853-.607-.615 0-.93.423-.93 1.037v.714c0 .615.315 1.037.93 1.037.483 0 .768-.261.937-.66l.637.337c-.261.653-.806 1.014-1.574 1.014zm3.893 0c-1.137 0-1.836-.814-1.836-2.089s.699-2.089 1.836-2.089c1.175 0 1.774.883 1.774 1.989v.315h-2.742v.131c0 .614.376 1.052 1.052 1.052.492 0 .822-.23 1.052-.599l.492.484c-.3.484-.883.806-1.628.806zm0-3.525c-.576 0-.968.43-.968 1.045v.053h1.858v-.076c0-.615-.337-1.022-.89-1.022zm4.577 3.433v-5.361h.868v4.593h2.18v.768h-3.048zm4.298-4.708c-.345 0-.499-.184-.499-.438v-.13c0-.254.154-.438.5-.438.345 0 .49.184.49.438v.13c0 .254-.145.438-.49.438zm-.422.714h.837v3.994h-.837v-3.994zm3.138 3.994c-.576 0-.883-.323-.883-.868v-2.442h-.622v-.684h.338c.276 0 .369-.115.369-.391v-.699h.752v1.09h.837v.684h-.837v2.627h.776v.683h-.73zm3.236.092c-1.136 0-1.835-.814-1.835-2.089s.699-2.089 1.835-2.089c1.175 0 1.774.883 1.774 1.989v.315h-2.742v.131c0 .614.377 1.052 1.053 1.052.491 0 .821-.23 1.052-.599l.491.484c-.3.484-.883.806-1.628.806zm0-3.525c-.576 0-.968.43-.968 1.045v.053h1.859v-.076c0-.615-.338-1.022-.89-1.022zm5.445 3.433h-.868v-5.361h2.312c.96 0 1.551.622 1.551 1.613 0 .761-.36 1.29-1.044 1.49l1.16 2.258h-.968l-1.075-2.166h-1.068v2.166zm1.383-2.895c.437 0 .698-.238.698-.668v-.369c0-.43-.26-.668-.698-.668h-1.383v1.705h1.383zm4.175 2.987c-1.137 0-1.836-.814-1.836-2.089s.699-2.089 1.836-2.089c1.175 0 1.774.883 1.774 1.989v.315h-2.742v.131c0 .614.376 1.052 1.052 1.052.492 0 .822-.23 1.052-.599l.492.484c-.3.484-.883.806-1.628.806zm0-3.525c-.576 0-.968.43-.968 1.045v.053h1.858v-.076c0-.615-.337-1.022-.89-1.022zm2.908.123h-.607v-.684h.607v-.66c0-.645.345-1.029 1.014-1.029h.66v.683h-.837v1.006h.837v.684h-.837v3.31h-.837v-3.31zm3.94 3.402c-1.138 0-1.836-.814-1.836-2.089s.698-2.089 1.835-2.089c1.175 0 1.774.883 1.774 1.989v.315h-2.742v.131c0 .614.377 1.052 1.053 1.052.491 0 .821-.23 1.052-.599l.491.484c-.3.484-.883.806-1.628.806zm0-3.525c-.577 0-.969.43-.969 1.045v.053h1.859v-.076c0-.615-.338-1.022-.89-1.022zm2.7 3.433v-3.994h.837v.768h.038c.116-.407.461-.768 1.099-.768h.222v.807h-.33c-.66 0-1.029.223-1.029.637v2.55h-.837zm2.94 0v-3.994h.837v.768h.038c.116-.407.461-.768 1.099-.768h.222v.807h-.33c-.66 0-1.029.223-1.029.637v2.55h-.837zm5.806 0c-.438 0-.668-.276-.722-.668h-.038c-.154.499-.584.76-1.168.76-.821 0-1.29-.468-1.29-1.19 0-.791.591-1.198 1.705-1.198h.722v-.338c0-.484-.261-.768-.822-.768-.468 0-.752.23-.952.545l-.5-.453c.262-.445.73-.776 1.506-.776 1.029 0 1.605.507 1.605 1.398v2.005h.422v.683h-.468zm-1.69-.545c.515 0 .899-.246.899-.638v-.576h-.707c-.583 0-.867.192-.867.538v.138c0 .353.261.538.675.538zm3.831.545c-.568 0-.852-.315-.852-.829v-4.854h.837v5h.553v.683h-.538z"/><path fill="#EAECEF" d="M34.865 179.2h-1.52v-8.041h3.628c1.463 0 2.373.968 2.373 2.488 0 1.106-.506 1.947-1.497 2.281l1.647 3.272h-1.693l-1.498-3.099h-1.44v3.099zm1.959-4.378c.587 0 .944-.322.944-.91v-.53c0-.587-.357-.898-.944-.898h-1.959v2.338h1.959zm4.17 4.378v-8.041h5.3v1.348h-3.779v1.947h3.341v1.348h-3.34v2.05h3.778v1.348h-5.3zm6.908 0v-8.041h5.172v1.348h-3.651v1.947h3.18v1.348h-3.18v3.398h-1.521zm6.649 0v-8.041h5.299v1.348h-3.779v1.947h3.341v1.348h-3.34v2.05h3.778v1.348h-5.3zm8.428 0h-1.52v-8.041h3.628c1.463 0 2.373.968 2.373 2.488 0 1.106-.507 1.947-1.497 2.281l1.647 3.272h-1.694l-1.497-3.099h-1.44v3.099zm1.958-4.378c.588 0 .945-.322.945-.91v-.53c0-.587-.357-.898-.945-.898H62.98v2.338h1.958zm8.818 4.378v-3.156L71 171.159h1.705l1.855 3.399h.023l1.809-3.399h1.659l-2.765 4.873v3.168h-1.532zm8.005.138c-2.108 0-3.502-1.44-3.502-4.158 0-2.719 1.394-4.159 3.502-4.159 2.12 0 3.502 1.44 3.502 4.159 0 2.718-1.383 4.158-3.502 4.158zm0-1.348c1.152 0 1.889-.817 1.889-2.188v-1.244c0-1.371-.737-2.189-1.89-2.189-1.151 0-1.888.818-1.888 2.189v1.244c0 1.371.737 2.188 1.889 2.188zm6.484-6.831v4.942c0 1.256.438 1.889 1.59 1.889 1.152 0 1.59-.633 1.59-1.889v-4.942h1.498v4.746c0 2.362-.841 3.433-3.1 3.433-2.257 0-3.075-1.071-3.075-3.433v-4.746h1.498zm8.035 8.041h-1.52v-8.041h3.628c1.463 0 2.373.968 2.373 2.488 0 1.106-.507 1.947-1.497 2.281l1.647 3.272h-1.694l-1.497-3.099h-1.44v3.099zm1.958-4.378c.588 0 .945-.322.945-.91v-.53c0-.587-.357-.898-.945-.898H96.28v2.338h1.958zm8.115 4.378l-1.866-8.041h1.52l.795 3.859.496 2.466h.034l.576-2.466.922-3.859h1.682l.921 3.859.565 2.466h.034l.507-2.466.818-3.859h1.452l-1.924 8.041h-1.717l-1.025-4.251-.495-2.119h-.023l-.519 2.119-1.025 4.251h-1.728zm14.443 0l-.645-2.05h-2.857l-.634 2.05h-1.543l2.695-8.041h1.89l2.672 8.041h-1.578zm-2.051-6.658h-.057l-1.026 3.306h2.12l-1.037-3.306zm5.973 6.658v-3.156l-2.753-4.885h1.705l1.855 3.399h.023l1.808-3.399h1.659l-2.765 4.873v3.168h-1.532zm11.234-6.693v6.693h-1.521v-6.693h-2.281v-1.348h6.083v1.348h-2.281zm6.401 6.831c-2.108 0-3.502-1.44-3.502-4.158 0-2.719 1.394-4.159 3.502-4.159 2.12 0 3.502 1.44 3.502 4.159 0 2.718-1.382 4.158-3.502 4.158zm0-1.348c1.152 0 1.89-.817 1.89-2.188v-1.244c0-1.371-.738-2.189-1.89-2.189s-1.889.818-1.889 2.189v1.244c0 1.371.737 2.188 1.889 2.188zm-105.897 7.169c.08 0 .138.058.138.138v7.765c0 .08-.057.138-.138.138h-1.048a.133.133 0 01-.139-.138v-6.417l-1.451 1.325c-.08.081-.173.035-.173-.081v-1.267a.25.25 0 01.08-.173l1.418-1.221a.21.21 0 01.16-.069h1.153zm5.152 8.179c-1.302 0-2.35-.887-2.35-2.338v-3.641c0-1.451 1.048-2.338 2.35-2.338 1.313 0 2.361.887 2.361 2.338V191c0 1.451-1.048 2.338-2.361 2.338zm0-1.336c.68 0 1.083-.495 1.083-1.21v-3.225c0-.714-.404-1.21-1.083-1.21-.668 0-1.072.496-1.072 1.21v3.225c0 .715.404 1.21 1.072 1.21zm6.142 1.336c-1.302 0-2.35-.887-2.35-2.338v-3.641c0-1.451 1.048-2.338 2.35-2.338 1.313 0 2.362.887 2.362 2.338V191c0 1.451-1.048 2.338-2.362 2.338zm0-1.336c.68 0 1.083-.495 1.083-1.21v-3.225c0-.714-.403-1.21-1.083-1.21-.668 0-1.071.496-1.071 1.21v3.225c0 .715.403 1.21 1.071 1.21zm8.185-6.843v4.942c0 1.256.438 1.889 1.59 1.889 1.152 0 1.59-.633 1.59-1.889v-4.942h1.498v4.746c0 2.362-.841 3.433-3.1 3.433-2.257 0-3.075-1.071-3.075-3.433v-4.746h1.498zm9.014 8.179c-1.37 0-2.315-.541-2.995-1.336l1.025-.991c.553.645 1.233.991 2.062.991.933 0 1.417-.449 1.417-1.129 0-.541-.253-.875-1.094-1.025l-.76-.115c-1.625-.254-2.408-1.026-2.408-2.339 0-1.44 1.117-2.373 2.914-2.373 1.21 0 2.109.415 2.754 1.186l-1.037.98c-.392-.496-.945-.83-1.797-.83-.864 0-1.313.346-1.313.945 0 .61.345.864 1.117 1.002l.749.138c1.624.288 2.384 1.014 2.384 2.339 0 1.521-1.094 2.557-3.018 2.557zm4.543-8.179h2.926c2.096 0 3.467 1.348 3.467 4.021 0 2.672-1.37 4.02-3.467 4.02H69.49v-8.041zm2.926 6.693c1.129 0 1.855-.668 1.855-2.039v-1.267c0-1.371-.726-2.039-1.855-2.039H71.01v5.345h1.406zm7.869-5.345v6.693h-1.52v-6.693h-2.282v-1.348h6.083v1.348h-2.281z"/><rect stroke-width=".64" stroke="#333B47" rx="4.8" height="71.04" width="220.16" y="139.88" x="19.92"/><path fill="url(#paint1_linear_4206_116534)" d="M184.822 173.211l-2.095 3.63 21.974 12.687a.639.639 0 01.872-.236.64.64 0 01.233.873l6.206 3.583.195-.339-.019-.011-.014-.007a.751.751 0 11.752-1.302l.032.019.467-.808-.033-.018a.751.751 0 11.752-1.302l.032.019.467-.808-.019-.01-.014-.008a.752.752 0 01.751-1.302l.013.008.019.011.467-.808-.033-.018a.752.752 0 01.752-1.302l.032.019.467-.808-.033-.018a.751.751 0 11.752-1.302l.032.019.466-.808-.033-.018a.753.753 0 11.784-1.282l.474-.821-6.145-3.548a.753.753 0 00.336.994l-.467.809-.032-.02a.753.753 0 00-.752 1.302l.033.018-.467.809-.013-.009a.752.752 0 10-.771 1.291l.033.018-.466.809-.033-.02a.75.75 0 10-.751 1.302c.009.005.018.011.028.015l.005.003-.467.809-.012-.008-.02-.012a.752.752 0 00-.752 1.302l.033.018-.196.339-6.206-3.583a.637.637 0 10-1.104-.637l-16.512-9.533zm22.148 13.215l.392.227-.292.507-.392-.226.292-.508zm-.532.923l.392.226-.293.507-.392-.226.293-.507zm-.532.922l.392.226-.293.507-.392-.226.293-.507z" clip-rule="evenodd" fill-rule="evenodd"/><path fill="url(#paint2_linear_4206_116534)" d="M206.811 174.086l.392.227-.293.507-.392-.227.293-.507z"/><path fill="url(#paint3_linear_4206_116534)" d="M206.279 175.008l.392.227-.293.507-.392-.226.293-.508z"/><path fill="url(#paint4_linear_4206_116534)" d="M205.746 175.931l.392.226-.306.53-.392-.226.306-.53z"/><path fill="url(#paint5_linear_4206_116534)" d="M205.2 176.876l.392.226-.292.507-.392-.226.292-.507z"/><path fill="url(#paint6_linear_4206_116534)" d="M204.668 177.798l.392.226-.293.508-.392-.227.293-.507z"/><path fill="url(#paint7_linear_4206_116534)" d="M204.136 178.72l.392.227-.293.507-.392-.226.293-.508z"/><path fill="url(#paint8_linear_4206_116534)" d="M203.603 179.643l.392.226-.293.507-.392-.226.293-.507z"/><path fill="url(#paint9_linear_4206_116534)" d="M203.071 180.565l.392.226-.293.507-.392-.226.293-.507z"/><path fill="url(#paint10_linear_4206_116534)" d="M202.538 181.487l.392.226-.293.507-.392-.226.293-.507z"/><path stroke-width=".245" stroke="#D0980B" d="M185.762 177.51l.24-.415m.28-.484l.24-.415m-1.035.279l.414.239m.483.278l.414.239m4.771-9.779l.24-.415m.28-.484l.24-.415m-1.035.279l.414.239m.482.278l.414.239m10.297 20.232l.239-.415m.28-.484l.24-.415m-1.035.279l.414.239m.483.278l.414.239m4.772-9.779l.24-.416m.28-.483l.239-.416m-1.035.279l.414.239m.483.279l.414.239m-22.317.536l14.576 8.416m-10.797-17.936l-4.325 7.491m21.463 2.404l-4.326 7.491"/><path fill="url(#paint11_linear_4206_116534)" d="M209.947 170.376l6.206 3.583-.474.821-.032-.02a.753.753 0 00-.752 1.302l.013.008.021.01-.467.809-.032-.02a.753.753 0 10-.719 1.32l-.467.809-.032-.02a.753.753 0 10-.719 1.32l-.467.809a.753.753 0 00-1.059.255.752.752 0 00.276 1.027l.018.011.015.007-.467.809-.032-.02a.753.753 0 00-.752 1.302l.033.018-.467.809a.752.752 0 10-.751 1.3l-.195.339-6.206-3.583a.639.639 0 10-1.105-.637l-21.974-12.687 3.25-5.63a1.023 1.023 0 001.021-1.767l3.237-5.608 21.975 12.687a.639.639 0 00.232.873c.305.176.696.07.872-.236zm-1.146 1.17l-.392-.226-.293.507.392.226.293-.507zm-.533.922l-.392-.226-.292.507.391.226.293-.507zm-.532.922l-.392-.226-.293.507.392.227.293-.508zm-.533.923l-.392-.227-.292.508.392.226.292-.507zm-.532.922l-.392-.226-.293.507.392.226.293-.507zm-.532.922l-.392-.226-.307.53.392.226.307-.53zm-.546.945l-.392-.226-.293.507.392.226.293-.507zm-.533.922l-.392-.226-.292.507.392.227.292-.508zm-.532.923l-.392-.227-.293.508.392.226.293-.507zm-.533.922l-.391-.226-.293.507.392.226.292-.507zm-.532.922l-.392-.226-.293.507.392.226.293-.507zm-.532.922l-.392-.226-.293.507.392.227.293-.508z" clip-rule="evenodd" fill-rule="evenodd"/><path stroke-width=".245" stroke="#F8D33A" d="M182.396 170.727l.24-.416m.28-.483l.24-.416m-1.036.279l.414.239m.483.279l.414.239m4.773-9.78l.239-.415m.279-.484l.24-.415m-1.035.279l.414.239m.483.278l.414.239m10.296 20.232l.24-.415m.279-.484l.24-.415m-1.035.279l.414.239m.483.278l.414.239m4.772-9.779l.24-.415m.279-.484l.24-.416m-1.035.28l.414.239m.483.278l.414.239m-22.317.537l14.576 8.415m-8.792-18.532l14.576 8.416m-16.581-7.82l-4.325 7.492m21.463 2.403l-4.325 7.491"/><g filter="url(#filter0_d_4206_116534)" style="mix-blend-mode:multiply"><path fill="#D0980B" d="M188.828 169.507c-.862-.498-.981-1.062-.486-1.92l.981-1.699.767.443-1.014 1.757c-.184.317-.137.542.151.709.285.164.503.092.686-.226l1.014-1.757.772.445-.981 1.7c-.496.858-1.032 1.043-1.89.548zm2.933 1.693c-.528-.305-.764-.705-.877-1.1l.813-.246c.08.299.279.535.531.681.239.138.395.107.473-.029.05-.087.098-.197-.1-.322l-.297-.21c-.624-.432-.7-.921-.407-1.429.3-.519.949-.69 1.691-.261.433.25.703.582.817.956l-.835.266c-.05-.2-.16-.39-.436-.549-.227-.131-.353-.105-.405-.014-.09.157-.057.231.101.339l.29.222c.568.427.72.878.41 1.414-.326.565-.989.732-1.769.282zm1.911 1.037l1.663-2.878 1.159.669c.787.455 1.034 1.246.484 2.199-.55.953-1.359 1.134-2.147.68l-1.159-.67zm1.206-.249l.363.209c.309.179.55.153.776-.239l.248-.429c.226-.392.128-.613-.181-.792l-.363-.209-.843 1.46zm2.385 2.322l1.252-2.169-.697-.403.41-.709 2.19 1.264-.41.71-.697-.403-1.252 2.17-.796-.46z"/><path fill="#fff" d="M189.323 165.888l.053-.093-.092-.053-.054.092.093.054zm.767.443l.093.053.053-.092-.092-.054-.054.093zm.837.483l.054-.092-.093-.054-.053.093.092.053zm.772.445l.092.054.054-.093-.093-.053-.053.092zm-2.817 2.155c-.421-.242-.636-.488-.702-.757-.066-.271.012-.596.254-1.016l-.185-.107c-.252.437-.362.823-.277 1.173.086.352.361.637.803.892l.107-.185zm-.448-1.773l.982-1.7-.186-.107-.981 1.7.185.107zm.836-1.661l.767.443.107-.185-.768-.443-.106.185zm.728.297l-1.015 1.757.185.107 1.015-1.757-.185-.107zm-1.015 1.757c-.097.169-.146.333-.113.487.033.157.145.276.304.368l.107-.185c-.13-.075-.186-.151-.202-.227-.017-.08.004-.187.089-.336l-.185-.107zm.191.855c.158.091.316.127.468.077.148-.049.266-.172.364-.341l-.186-.107c-.085.148-.168.22-.245.245-.074.025-.167.014-.294-.059l-.107.185zm.832-.264l1.014-1.757-.185-.107-1.015 1.757.186.107zm.868-1.718l.771.445.107-.185-.771-.445-.107.185zm.732.299l-.981 1.699.185.107.981-1.699-.185-.107zm-.981 1.699c-.243.421-.483.653-.747.733-.262.079-.578.018-.996-.224l-.107.185c.44.254.82.348 1.165.244.342-.104.618-.394.87-.831l-.185-.107zm.259 1.195l-.031-.102-.1.03.029.101.102-.029zm.813-.246l.103-.027-.028-.107-.106.032.031.102zm.904.33l-.062.087.005.003.057-.09zm-.297-.21l.062-.087-.001-.001-.061.088zm2.101-.734l.033.102.1-.032-.03-.101-.103.031zm-.835.266l-.104.026.028.11.109-.034-.033-.102zm-.74-.224l.065-.085-.004-.003-.061.088zm.29.222l-.065.085.001.001.064-.086zm-1.305 1.604c-.501-.289-.722-.665-.828-1.038l-.205.059c.119.418.371.843.926 1.164l.107-.185zm-.9-.906l.813-.246-.062-.204-.813.246.062.204zm.679-.32c.088.329.307.587.581.745l.107-.185a1.013 1.013 0 01-.482-.615l-.206.055zm.581.745c.129.075.25.113.36.102a.329.329 0 00.259-.17l-.185-.107c-.024.042-.054.061-.094.065-.048.004-.123-.011-.233-.075l-.107.185zm.619-.068a.347.347 0 00.056-.213c-.012-.099-.079-.182-.192-.253l-.114.181c.085.054.093.089.094.098.002.015-.004.037-.029.08l.185.107zm-.131-.463l-.297-.209-.123.174.297.21.123-.175zm-.298-.21c-.299-.207-.453-.418-.505-.624-.051-.205-.007-.426.13-.663l-.185-.107c-.156.27-.221.548-.152.822.069.273.265.523.591.748l.121-.176zm-.375-1.287a.87.87 0 01.606-.435c.262-.048.584.008.939.213l.106-.185c-.387-.224-.761-.298-1.084-.238-.324.06-.587.252-.752.538l.185.107zm1.545-.222c.413.239.663.55.768.894l.205-.062c-.124-.404-.414-.756-.867-1.017l-.106.185zm.838.761l-.835.266.065.204.835-.266-.065-.204zm-.699.342c-.057-.226-.184-.441-.487-.616l-.107.185c.25.145.343.31.386.483l.208-.052zm-.487-.616a.642.642 0 00-.324-.104.259.259 0 00-.227.13l.186.107c.006-.012.016-.023.047-.023.038-.001.105.014.211.075l.107-.185zm-.551.026c-.049.086-.082.178-.051.274.029.089.106.152.185.206l.121-.176c-.079-.054-.098-.082-.103-.096-.002-.007-.007-.031.034-.101l-.186-.107zm.129.477l.29.222.13-.169-.29-.223-.13.17zm.291.223c.275.206.435.409.496.611.059.198.03.414-.114.664l.185.106c.165-.287.214-.564.133-.832-.079-.264-.279-.5-.572-.72l-.128.171zm.382 1.275a.927.927 0 01-.642.47c-.272.05-.607-.011-.981-.227l-.107.185c.405.234.792.314 1.127.252.338-.063.61-.266.788-.574l-.185-.106zm.234 1.372l-.092-.053-.054.093.093.053.053-.093zm1.663-2.878l.053-.093-.093-.053-.053.092.093.054zm-.457 2.629l-.093-.054-.053.093.093.053.053-.092zm.843-1.46l.053-.093-.092-.053-.054.092.093.054zm-1.956 1.763l1.662-2.879-.185-.107-1.662 2.879.185.107zm1.516-2.84l1.159.669.107-.185-1.159-.669-.107.185zm1.159.669c.375.217.611.506.694.846.083.34.017.748-.248 1.207l.185.107c.285-.493.37-.957.27-1.365-.099-.408-.381-.741-.794-.98l-.107.185zm.446 2.053c-.266.46-.586.721-.922.819-.335.098-.704.038-1.079-.178l-.107.185c.413.239.842.316 1.246.198.403-.117.762-.424 1.047-.917l-.185-.107zm-2.001.641l-1.159-.669-.107.185 1.159.669.107-.185zm-.06-.734l.363.21.106-.185-.363-.21-.106.185zm.363.21c.164.095.332.149.499.105.168-.044.303-.177.423-.384l-.185-.107c-.107.186-.205.261-.292.284-.087.023-.193 0-.339-.083l-.106.185zm.922-.279l.247-.429-.185-.107-.247.429.185.107zm.247-.429c.12-.206.167-.391.121-.557-.046-.167-.176-.286-.341-.38l-.106.185c.145.083.217.165.241.251.024.087.007.209-.1.394l.185.107zm-.22-.937l-.363-.21-.106.185.363.21.106-.185zm-.509-.171l-.843 1.46.186.107.843-1.46-.186-.107zm1.635 3.836l-.093-.053-.053.093.092.053.054-.093zm1.252-2.169l.093.053.053-.092-.092-.054-.054.093zm-.697-.403l-.092-.053-.054.093.093.053.053-.093zm.41-.709l.053-.093-.092-.053-.054.093.093.053zm2.19 1.264l.093.054.053-.093-.093-.053-.053.092zm-.41.71l-.053.092.093.054.053-.093-.093-.053zm-.697-.403l.054-.092-.093-.054-.053.093.092.053zm-1.252 2.17l-.054.093.093.053.053-.093-.092-.053zm-.704-.406l1.253-2.17-.185-.107-1.253 2.17.185.107zm1.214-2.316l-.697-.402-.107.185.697.402.107-.185zm-.658-.256l.409-.71-.185-.106-.409.709.185.107zm.263-.67l2.191 1.264.106-.185-2.19-1.265-.107.186zm2.152 1.118l-.41.709.185.107.41-.709-.185-.107zm-.264.67l-.697-.402-.107.185.697.402.107-.185zm-.843-.363l-1.253 2.17.185.106 1.253-2.169-.185-.107zm-1.107 2.13l-.796-.459-.107.185.796.46.107-.186z"/></g><path fill="#76808F" d="M223.774 161.824c-1.437-1.437-3.76-1.444-5.188-.016l-1.967 1.967a3.687 3.687 0 015.203 0l1.952-1.951z" opacity=".3"/><path fill="#24C7D6" d="M216.554 169.043c-1.436-1.436-1.443-3.759-.015-5.187l1.967-1.967a3.686 3.686 0 000 5.203l-1.952 1.951z"/><path fill="#FF7E0D" d="M180.93 185.449l-.738.738 2.793 2.792.737-.737-2.792-2.793zm-.738 7.799l.738.737 2.792-2.792-.737-.738-2.793 2.793zm5.006-2.055l.737-.738 2.793 2.793-.738.737-2.792-2.792zm0-2.951l.737.737 2.793-2.792-.738-.738-2.792 2.793zm-1.26-2.198h1.043v-1.842h-1.043v1.842zm-4.993 3.151v1.043h1.842v-1.043h-1.842zm4.993 6.036h1.043v-1.842h-1.043v1.842zm4.194-4.993v-1.043h1.842v1.043h-1.842z"/><path fill="#F8D33A" d="M207.351 161.496l1.872-1.872 1.871 1.872-1.871 1.872z"/><path fill="#CACED3" opacity=".3" d="M193.712 192.31l1.676-1.676 1.676 1.676-1.676 1.676z"/><path fill="#24C7D6" d="M177.156 153.436l-.519.519 1.965 1.965.519-.519-1.965-1.965zm-.519 5.487l.519.519 1.965-1.965-.519-.519-1.965 1.965zm3.522-1.446l.519-.519 1.965 1.965-.519.519-1.965-1.965zm0-2.076l.519.519 1.965-1.965-.519-.519-1.965 1.965zm-.886-1.546h.734v-1.296h-.734v1.296zm-3.513 2.217v.734h1.296v-.734h-1.296zm3.513 4.247h.734v-1.296h-.734v1.296zm2.951-3.513v-.734h1.296v.734h-1.296z"/><path fill="#EAECEF" d="M20.545 244.44v-8.041h5.299v1.348h-3.779v1.947h3.341v1.348h-3.34v2.05h3.778v1.348h-5.3zm8.232-3.053l-2.004-2.96h1.681l1.245 1.992h.046l1.232-1.992h1.567l-2.039 2.983 2.05 3.03h-1.681l-1.267-2.074h-.047l-1.267 2.074h-1.566l2.05-3.053zm4.85-2.96H35.1v.99h.046c.219-.691.864-1.129 1.659-1.129 1.52 0 2.361 1.129 2.361 3.134 0 2.016-.84 3.156-2.361 3.156-.795 0-1.429-.461-1.659-1.14H35.1v3.306h-1.475v-8.317zm2.706 4.93c.76 0 1.29-.553 1.29-1.405v-1.037c0-.853-.53-1.417-1.29-1.417-.702 0-1.232.38-1.232.968v1.912c0 .622.53.979 1.233.979zm4.2 1.083v-6.013h1.475v1.244h.058c.15-.634.634-1.244 1.59-1.244h.322v1.393h-.46c-.991 0-1.51.277-1.51.934v3.686h-1.474zm6.898.138c-1.774 0-2.834-1.232-2.834-3.156 0-1.901 1.025-3.134 2.788-3.134 1.878 0 2.742 1.383 2.742 3.03v.484h-3.998v.15c0 .864.495 1.451 1.463 1.451.726 0 1.164-.345 1.532-.818l.795.887c-.495.68-1.37 1.106-2.488 1.106zm-.023-5.184c-.772 0-1.279.576-1.279 1.406v.092h2.465v-.104c0-.829-.426-1.394-1.186-1.394zm5.986 5.184c-1.14 0-1.89-.415-2.489-1.106l.899-.875c.438.507.968.818 1.647.818.703 0 1.003-.265 1.003-.692 0-.345-.208-.564-.738-.633l-.599-.081c-1.29-.161-2.004-.726-2.004-1.82 0-1.163.91-1.901 2.28-1.901 1.176 0 1.775.346 2.35.945l-.863.864a1.985 1.985 0 00-1.44-.645c-.634 0-.91.253-.91.622 0 .403.219.587.783.68l.61.08c1.314.185 1.947.772 1.947 1.774 0 1.164-.979 1.97-2.476 1.97zm5.67 0c-1.14 0-1.89-.415-2.489-1.106l.899-.875c.438.507.968.818 1.647.818.703 0 1.003-.265 1.003-.692 0-.345-.208-.564-.738-.633l-.599-.081c-1.29-.161-2.004-.726-2.004-1.82 0-1.163.91-1.901 2.28-1.901 1.176 0 1.775.346 2.35.945l-.863.864a1.985 1.985 0 00-1.44-.645c-.634 0-.91.253-.91.622 0 .403.219.587.783.68l.61.08c1.314.185 1.947.772 1.947 1.774 0 1.164-.979 1.97-2.476 1.97zm9.715 0c-2.12 0-3.467-1.394-3.467-4.101s1.347-4.216 3.467-4.216c1.44 0 2.373.61 2.938 1.854l-1.302.692c-.23-.715-.737-1.198-1.636-1.198-1.129 0-1.855.818-1.855 2.188v1.268c0 1.382.726 2.165 1.855 2.165.91 0 1.475-.553 1.74-1.278l1.232.725c-.576 1.198-1.532 1.901-2.972 1.901zm4.177-8.663h1.475v3.514h.058c.241-.645.748-1.141 1.681-1.141 1.233 0 1.924.853 1.924 2.35v3.802H76.62v-3.652c0-.852-.288-1.29-.991-1.29-.61 0-1.198.322-1.198.968v3.974h-1.475v-8.525zm9.203 8.663c-1.774 0-2.833-1.232-2.833-3.156 0-1.901 1.025-3.134 2.788-3.134 1.877 0 2.741 1.383 2.741 3.03v.484h-3.997v.15c0 .864.495 1.451 1.463 1.451.726 0 1.163-.345 1.532-.818l.795.887c-.495.68-1.371 1.106-2.489 1.106zm-.023-5.184c-.771 0-1.278.576-1.278 1.406v.092h2.465v-.104c0-.829-.426-1.394-1.186-1.394zm6.39 5.184c-1.774 0-2.777-1.221-2.777-3.156 0-1.924 1.003-3.134 2.777-3.134 1.21 0 2.004.576 2.361 1.521l-1.21.541c-.138-.507-.518-.875-1.151-.875-.818 0-1.233.576-1.233 1.417v1.094c0 .841.415 1.406 1.233 1.406.702 0 1.048-.404 1.267-.945l1.129.541c-.392 1.06-1.233 1.59-2.396 1.59zm3.533-8.663h1.474v5.138h.058l.795-1.083 1.348-1.543h1.67l-2.073 2.327 2.292 3.686h-1.751l-1.544-2.696-.795.864v1.832H92.06v-8.525zm8.572 8.663c-1.716 0-2.788-1.221-2.788-3.156 0-1.924 1.072-3.134 2.788-3.134 1.728 0 2.799 1.21 2.799 3.134 0 1.935-1.071 3.156-2.799 3.156zm0-1.186c.772 0 1.256-.496 1.256-1.406v-1.117c0-.899-.484-1.394-1.256-1.394-.76 0-1.244.495-1.244 1.394v1.117c0 .91.484 1.406 1.244 1.406zm7.701.046h-.058c-.207.599-.691 1.14-1.682 1.14-1.232 0-1.924-.852-1.924-2.35v-3.801h1.475v3.651c0 .83.311 1.279 1.014 1.279.587 0 1.175-.311 1.175-.956v-3.974h1.474v6.013h-1.474v-1.002zm5.056 1.002c-1.014 0-1.555-.553-1.555-1.532v-3.306h-.887v-1.175h.46c.438 0 .576-.208.576-.623v-1.025h1.325v1.648h1.233v1.175h-1.233v3.663h1.141v1.175h-1.06z"/><path fill="#707A8A" d="M231.171 235.76l-1.131 1.132 2.829 2.828-2.829 2.828 1.131 1.132 2.829-2.829 2.828 2.829 1.132-1.132-2.829-2.828 2.829-2.828-1.132-1.132-2.828 2.829-2.829-2.829z"/><g clip-path="url(#clip1_4206_116534)"><rect fill="url(#paint12_linear_4206_116534)" rx="6.4" height="101.76" width="220.8" y="256.68" x="19.6"/><path fill="#F6921A" d="M44.331 280.936c-1.021 4.12-5.198 6.617-9.307 5.595-4.11-1.021-6.618-5.198-5.596-9.307 1.021-4.12 5.187-6.617 9.308-5.595a7.684 7.684 0 015.595 9.307z"/><path fill="#fff" d="M40.208 277.938c.147-1.021-.625-1.566-1.692-1.941l.34-1.384-.839-.216-.34 1.351c-.227-.057-.455-.102-.67-.159l.34-1.362-.84-.216-.34 1.385c-.182-.046-.363-.08-.534-.125l-1.157-.295-.227.897s.624.147.612.147c.341.091.41.307.398.488l-.398 1.578c.023.011.057.011.091.023-.022-.012-.056-.012-.09-.023l-.557 2.213c-.045.102-.147.261-.386.204.012.012-.612-.147-.612-.147l-.42.965 1.1.272c.205.057.41.102.602.159l-.352 1.396.84.216.34-1.385c.228.068.455.125.67.17l-.34 1.374.84.215.352-1.396c1.441.273 2.52.159 2.974-1.135.363-1.044-.023-1.646-.772-2.043.544-.113.953-.477 1.067-1.226zm-1.93 2.702c-.261 1.044-2.02.476-2.6.34l.466-1.85c.579.136 2.407.42 2.134 1.51zm.261-2.713c-.238.953-1.703.465-2.18.352l.42-1.68c.477.113 2.01.329 1.76 1.328z"/><path fill="#EAECEF" d="M48.95 274.546h3.674c1.472 0 2.38.908 2.38 2.304 0 1.331-.857 1.804-1.446 1.894v.077c.64.038 1.754.589 1.754 2.073 0 1.472-.986 2.586-2.304 2.586H48.95v-8.934zm1.076 3.865h2.47c.845 0 1.357-.448 1.357-1.241v-.436c0-.793-.512-1.241-1.357-1.241h-2.47v2.918zm0 4.122h2.65c.92 0 1.484-.487 1.484-1.383v-.435c0-.896-.563-1.382-1.485-1.382h-2.65v3.2zm7.696-7.207c-.435 0-.627-.23-.627-.576v-.166c0-.346.192-.576.627-.576.436 0 .628.23.628.576v.166c0 .346-.192.576-.628.576zm-.511 1.549h1.023v6.605h-1.023v-6.605zm4.659 6.605c-.704 0-1.088-.448-1.088-1.088v-4.621h-1.088v-.896h.614c.435 0 .576-.153.576-.601v-1.229h.922v1.83h1.446v.896h-1.446v4.813h1.344v.896h-1.28zm5.436.154c-1.856 0-2.944-1.344-2.944-3.456s1.088-3.456 2.944-3.456c1.305 0 2.086.64 2.47 1.548l-.858.436c-.243-.679-.806-1.076-1.612-1.076-1.216 0-1.844.832-1.844 1.984v1.127c0 1.152.628 1.984 1.844 1.984.832 0 1.433-.397 1.792-1.152l.742.499c-.422.947-1.28 1.562-2.534 1.562zm6.4 0c-1.766 0-2.982-1.357-2.982-3.456 0-2.1 1.216-3.456 2.983-3.456 1.766 0 2.982 1.356 2.982 3.456 0 2.099-1.216 3.456-2.982 3.456zm0-.909c1.101 0 1.882-.679 1.882-2.074v-.947c0-1.395-.78-2.074-1.881-2.074s-1.882.679-1.882 2.074v.947c0 1.395.78 2.074 1.882 2.074zm5.179-7.399c-.435 0-.627-.23-.627-.576v-.166c0-.346.192-.576.627-.576s.627.23.627.576v.166c0 .346-.192.576-.627.576zm-.512 1.549h1.024v6.605h-1.024v-6.605zm3.2 6.605v-6.605h1.024v1.075h.051c.32-.742.883-1.228 1.869-1.228 1.357 0 2.214.921 2.214 2.521v4.237h-1.024v-4.058c0-1.177-.512-1.779-1.497-1.779-.82 0-1.613.41-1.613 1.255v4.582h-1.024zm85.517-5.212h2.274c.107 0 .184.076.184.184v1.505a.177.177 0 01-.184.184h-2.274v2.289a.176.176 0 01-.184.184h-1.505a.177.177 0 01-.185-.184v-2.289h-2.288a.177.177 0 01-.185-.184v-1.505c0-.108.077-.184.185-.184h2.288v-2.274c0-.107.077-.184.185-.184h1.505c.108 0 .184.077.184.184v2.274zm9.057-5.069c.107 0 .184.077.184.184v10.353a.178.178 0 01-.184.184h-1.398a.177.177 0 01-.184-.184v-8.556l-1.936 1.767c-.107.107-.23.046-.23-.108v-1.69c0-.092.046-.168.107-.23l1.89-1.628a.276.276 0 01.215-.092h1.536zm7.499 9.108h-3.917a.178.178 0 01-.185-.184v-1.275c0-.077.031-.154.062-.23l3.656-7.281a.23.23 0 01.215-.138h1.551c.138 0 .2.077.138.215l-3.655 7.311h2.135v-2.166c0-.107.076-.184.184-.184h1.505c.108 0 .184.077.184.184v2.166h.799c.108 0 .185.077.185.184v1.214a.178.178 0 01-.185.184h-.799v1.429a.177.177 0 01-.184.184h-1.505a.177.177 0 01-.184-.184v-1.429zm7.56-9.293c1.904 0 3.195 1.321 3.195 3.226 0 .768-.185 1.459-.753 2.596l-2.442 4.946a.232.232 0 01-.215.138h-1.552c-.138 0-.199-.077-.138-.215l2.166-4.332a2.474 2.474 0 01-.614.062c-1.644 0-2.827-1.306-2.827-3.118 0-1.982 1.275-3.303 3.18-3.303zm.015 4.716c.784 0 1.26-.553 1.26-1.459 0-.86-.476-1.459-1.26-1.459-.783 0-1.275.583-1.275 1.459 0 .906.476 1.459 1.275 1.459zm7.407 6.006a.178.178 0 01-.185.184h-1.904a.177.177 0 01-.184-.184v-1.905c0-.107.076-.184.184-.184h1.904c.108 0 .185.077.185.184v1.905zm5.133-10.722c1.904 0 3.195 1.321 3.195 3.226 0 .768-.185 1.459-.753 2.596l-2.442 4.946a.232.232 0 01-.215.138h-1.552c-.138 0-.199-.077-.138-.215l2.166-4.332a2.474 2.474 0 01-.614.062c-1.644 0-2.827-1.306-2.827-3.118 0-1.982 1.275-3.303 3.18-3.303zm.015 4.716c.784 0 1.26-.553 1.26-1.459 0-.86-.476-1.459-1.26-1.459-.783 0-1.275.583-1.275 1.459 0 .906.476 1.459 1.275 1.459zm8.175-4.716c1.904 0 3.195 1.321 3.195 3.226 0 .768-.185 1.459-.753 2.596l-2.442 4.946a.232.232 0 01-.215.138h-1.552c-.138 0-.199-.077-.138-.215l2.166-4.332a2.474 2.474 0 01-.614.062c-1.644 0-2.827-1.306-2.827-3.118 0-1.982 1.275-3.303 3.18-3.303zm.015 4.716c.784 0 1.26-.553 1.26-1.459 0-.86-.476-1.459-1.26-1.459-.783 0-1.275.583-1.275 1.459 0 .906.476 1.459 1.275 1.459zm7.115.891c-1.198 0-2.227-.707-2.227-2.104v-1.521c0-1.398 1.029-2.104 2.227-2.104s2.227.706 2.227 2.104v1.521c0 1.397-1.029 2.104-2.227 2.104zm5.176-5.499a.232.232 0 01.215-.138h1.291c.138 0 .199.077.138.215l-5.008 10.583a.23.23 0 01-.215.138h-1.29c-.138 0-.2-.077-.138-.215l5.007-10.583zm-5.176 4.116c.445 0 .737-.276.737-.844v-1.275c0-.569-.292-.83-.737-.83-.43 0-.722.261-.722.83v1.275c0 .568.292.844.722.844zm6.973 6.774c-1.198 0-2.227-.706-2.227-2.104v-1.521c0-1.398 1.029-2.104 2.227-2.104s2.228.706 2.228 2.104v1.521c0 1.398-1.03 2.104-2.228 2.104zm0-1.398c.446 0 .738-.261.738-.829v-1.275c0-.568-.292-.845-.738-.845-.43 0-.737.277-.737.845v1.275c0 .568.307.829.737.829zm-54.526 9.174c-.262 0-.377-.138-.377-.346v-.1c0-.207.115-.345.377-.345.261 0 .376.138.376.345v.1c0 .208-.115.346-.376.346zm-.308.929h.615v3.963h-.615v-3.963zm1.92 3.963v-3.963h.615v.645h.031c.192-.445.529-.737 1.121-.737.814 0 1.328.553 1.328 1.513v2.542h-.614v-2.435c0-.706-.307-1.067-.899-1.067-.491 0-.967.246-.967.753v2.749h-.615zm7.056 0c-.422 0-.653-.269-.653-.653v-2.772h-.653v-.538h.369c.261 0 .346-.092.346-.361v-.737h.553v1.098h.867v.538h-.867v2.887h.806v.538h-.768zm1.817-5.683h.614v2.365h.031c.192-.445.53-.737 1.121-.737.814 0 1.329.553 1.329 1.513v2.542h-.614v-2.435c0-.706-.308-1.067-.899-1.067-.492 0-.968.246-.968.753v2.749h-.614v-5.683zm5.855 5.775c-1.075 0-1.782-.814-1.782-2.073 0-1.26.707-2.074 1.782-2.074 1.06 0 1.712.814 1.712 1.935v.292h-2.849v.185c0 .683.438 1.198 1.175 1.198.499 0 .883-.246 1.091-.684l.438.315c-.254.538-.822.906-1.567.906zm0-3.632c-.668 0-1.137.506-1.137 1.198v.053h2.189v-.084c0-.699-.422-1.167-1.052-1.167zm5.193 3.54c-.423 0-.653-.269-.653-.637v-5.046h.614v5.145h.584v.538h-.545zm4.319 0c-.453 0-.637-.276-.683-.645h-.039c-.168.484-.591.737-1.144.737-.837 0-1.328-.461-1.328-1.198 0-.745.537-1.16 1.689-1.16h.783v-.391c0-.561-.307-.868-.936-.868-.477 0-.792.23-1.007.591l-.368-.345c.215-.423.691-.776 1.405-.776.953 0 1.521.499 1.521 1.336v2.181h.453v.538h-.346zm-1.766-.43c.607 0 1.044-.315 1.044-.722v-.653h-.814c-.698 0-1.013.215-1.013.599v.162c0 .391.307.614.783.614zm4.179.522c-.729 0-1.213-.307-1.566-.775l.437-.354c.308.384.676.607 1.175.607.523 0 .83-.238.83-.645 0-.307-.169-.545-.691-.622l-.315-.046c-.73-.108-1.275-.407-1.275-1.145 0-.783.607-1.167 1.413-1.167.637 0 1.06.238 1.382.637l-.407.369c-.176-.246-.514-.484-1.021-.484-.507 0-.776.238-.776.615 0 .384.269.537.761.614l.307.046c.875.131 1.213.515 1.213 1.114 0 .768-.56 1.236-1.467 1.236zm3.375-.092c-.422 0-.652-.269-.652-.653v-2.772h-.653v-.538h.368c.262 0 .346-.092.346-.361v-.737h.553v1.098h.868v.538h-.868v2.887h.806v.538h-.768zm5.046.092c-.845 0-1.483-.461-1.598-1.144-.008-.046.015-.077.069-.092l.484-.123c.046-.008.077 0 .092.054.138.468.461.683.953.683.568 0 .921-.392.921-.945 0-.606-.384-.998-.983-.998h-.238c-.054 0-.084-.031-.084-.084v-.446c0-.054.03-.084.084-.084h.23c.538 0 .891-.346.891-.899 0-.499-.33-.852-.86-.852-.453 0-.706.222-.852.66-.016.046-.046.069-.093.062l-.476-.123c-.053-.016-.069-.039-.061-.092.092-.638.683-1.122 1.505-1.122.937 0 1.521.584 1.521 1.452 0 .491-.223.883-.668 1.159v.016c.399.153.768.645.768 1.328 0 .937-.669 1.59-1.605 1.59zm7.006-4.055h.607l-1.774 4.885c-.177.476-.338.614-.922.614h-.315v-.538h.622l.3-.844-1.482-4.117h.614l.952 2.696.185.645h.038l.215-.645.96-2.696zm2.843 4.055c-1.075 0-1.782-.814-1.782-2.073 0-1.26.707-2.074 1.782-2.074 1.06 0 1.712.814 1.712 1.935v.292h-2.849v.185c0 .683.438 1.198 1.175 1.198.499 0 .883-.246 1.091-.684l.438.315c-.254.538-.822.906-1.567.906zm0-3.632c-.668 0-1.137.506-1.137 1.198v.053h2.189v-.084c0-.699-.422-1.167-1.052-1.167zm5.605 3.54c-.453 0-.638-.276-.684-.645h-.038c-.169.484-.591.737-1.144.737-.837 0-1.329-.461-1.329-1.198 0-.745.538-1.16 1.69-1.16h.783v-.391c0-.561-.307-.868-.937-.868-.476 0-.791.23-1.006.591l-.369-.345c.215-.423.692-.776 1.406-.776.952 0 1.52.499 1.52 1.336v2.181h.454v.538h-.346zm-1.766-.43c.606 0 1.044-.315 1.044-.722v-.653h-.814c-.699 0-1.014.215-1.014.599v.162c0 .391.307.614.784.614zm2.988.43v-3.963h.615v.73h.038c.138-.377.499-.73 1.145-.73h.238v.615h-.361c-.661 0-1.06.284-1.06.66v2.688h-.615zm4.011.092c-.73 0-1.214-.307-1.567-.775l.438-.354c.307.384.676.607 1.175.607.522 0 .829-.238.829-.645 0-.307-.169-.545-.691-.622l-.315-.046c-.729-.108-1.275-.407-1.275-1.145 0-.783.607-1.167 1.413-1.167.638 0 1.06.238 1.383.637l-.407.369c-.177-.246-.515-.484-1.022-.484-.506 0-.775.238-.775.615 0 .384.269.537.76.614l.307.046c.876.131 1.214.515 1.214 1.114 0 .768-.561 1.236-1.467 1.236zM29.914 312.04v-5.361h.645v4.793h2.281v.568h-2.926zm6.659 0c-.453 0-.638-.276-.684-.645h-.038c-.17.484-.591.737-1.145.737-.837 0-1.328-.461-1.328-1.198 0-.745.538-1.16 1.69-1.16h.783v-.391c0-.561-.307-.868-.937-.868-.476 0-.791.23-1.006.591l-.369-.345c.215-.423.691-.776 1.406-.776.952 0 1.52.499 1.52 1.336v2.181h.453v.538h-.345zm-1.767-.43c.607 0 1.045-.315 1.045-.722v-.653h-.814c-.7 0-1.014.215-1.014.599v.162c0 .391.307.614.783.614zm4.18.522c-.73 0-1.214-.307-1.567-.775l.438-.354c.307.384.675.607 1.175.607.522 0 .83-.238.83-.645 0-.307-.17-.545-.692-.622l-.315-.046c-.73-.108-1.275-.407-1.275-1.145 0-.783.607-1.167 1.413-1.167.638 0 1.06.238 1.383.637l-.407.369c-.177-.246-.515-.484-1.022-.484s-.775.238-.775.615c0 .384.268.537.76.614l.307.046c.876.131 1.214.515 1.214 1.114 0 .768-.561 1.236-1.467 1.236zm3.375-.092c-.423 0-.653-.269-.653-.653v-2.772h-.653v-.538h.369c.26 0 .345-.092.345-.361v-.737h.553v1.098h.868v.538h-.868v2.887h.807v.538h-.768zm3.693 0v-5.361h2.135c.96 0 1.498.592 1.498 1.536 0 .945-.538 1.536-1.498 1.536H46.7v2.289h-.645zm.645-2.857h1.49c.507 0 .807-.276.807-.768v-.399c0-.492-.3-.768-.807-.768H46.7v1.935zm3.876 2.857v-3.963h.615v.73h.038c.138-.377.5-.73 1.144-.73h.239v.615h-.361c-.661 0-1.06.284-1.06.66v2.688h-.615zm3.127-4.892c-.26 0-.376-.138-.376-.346v-.1c0-.207.115-.345.377-.345.26 0 .376.138.376.345v.1c0 .208-.115.346-.377.346zm-.307.929h.615v3.963h-.615v-3.963zm3.395 4.055c-1.114 0-1.767-.806-1.767-2.073 0-1.268.653-2.074 1.767-2.074.783 0 1.252.384 1.482.929l-.514.261c-.146-.407-.484-.645-.968-.645-.73 0-1.106.499-1.106 1.191v.676c0 .691.376 1.19 1.106 1.19.499 0 .86-.238 1.075-.691l.445.299c-.253.569-.768.937-1.52.937zm3.833 0c-1.075 0-1.782-.814-1.782-2.073 0-1.26.706-2.074 1.782-2.074 1.06 0 1.712.814 1.712 1.935v.292h-2.849v.185c0 .683.438 1.198 1.175 1.198.5 0 .883-.246 1.09-.684l.438.315c-.253.538-.821.906-1.566.906zm0-3.632c-.668 0-1.137.506-1.137 1.198v.053h2.189v-.084c0-.699-.423-1.167-1.052-1.167zm-28.75 21.82v-.881c-1.035-.082-1.72-.543-2.233-1.157l.748-.676c.42.512.911.84 1.556.922v-2.294c-1.464-.318-2.089-.932-2.089-1.966 0-1.086.779-1.751 2.018-1.884v-.891h.87v.891c.87.082 1.515.45 1.987 1.054l-.758.625a1.942 1.942 0 00-1.29-.768v2.099c1.484.328 2.13.901 2.13 1.966 0 1.096-.748 1.895-2.069 2.059v.901h-.87zm-.953-6.103c0 .563.328.819 1.024 1.013v-1.945c-.645.092-1.024.42-1.024.932zm2.816 3.215c0-.512-.256-.84-1.054-1.044v2.129c.665-.112 1.054-.522 1.054-1.085zm8.776.983c.071 0 .122.051.122.123v.819a.118.118 0 01-.122.123h-3.994a.118.118 0 01-.123-.123v-.86c0-.061.02-.102.061-.143l2.704-3.103c.235-.266.389-.655.389-.973 0-.614-.41-1.024-1.024-1.024-.584 0-1.034.41-1.034 1.024 0 .082-.051.123-.123.123h-.88c-.072 0-.124-.041-.124-.123 0-1.167.922-2.068 2.161-2.068 1.29 0 2.15.829 2.15 2.078 0 .482-.276 1.116-.686 1.577l-2.232 2.55h2.755zm3.422-6.205c1.27 0 2.16.829 2.16 2.181 0 .501-.133.962-.512 1.741l-1.607 3.256a.155.155 0 01-.144.092H44.9c-.093 0-.134-.051-.093-.143l1.444-2.888a1.704 1.704 0 01-.553.092c-1.054 0-1.915-.84-1.915-2.109 0-1.342.881-2.222 2.15-2.222zm.01 3.389c.614 0 1.044-.451 1.044-1.188 0-.747-.43-1.198-1.044-1.198-.625 0-1.055.451-1.055 1.198 0 .676.4 1.188 1.055 1.188zm4.712 4.403c0 .062-.02.113-.071.154l-.963.788c-.082.062-.153.031-.153-.071v-2.458c0-.072.05-.123.123-.123h.942c.071 0 .123.051.123.123v1.587zm4.664-4.239c.625.266 1.035.809 1.035 1.72 0 1.403-1.014 2.12-2.233 2.12-1.136 0-2.232-.584-2.232-1.935 0-.082.051-.123.123-.123h.901c.072 0 .113.041.123.112.082.553.491.912 1.085.912.656 0 1.096-.451 1.096-1.117 0-.665-.45-1.105-1.126-1.105h-.052a.119.119 0 01-.122-.123v-.84c0-.072.05-.123.122-.123h.052c.614 0 1.024-.409 1.024-1.014 0-.624-.4-1.044-.994-1.044-.532 0-.931.338-1.003.85-.01.071-.051.112-.123.112h-.89c-.073 0-.114-.041-.114-.112 0-1.055.994-1.874 2.13-1.874 1.24 0 2.12.829 2.12 2.038 0 .778-.348 1.269-.922 1.546zm4.324 3.778c-1.25 0-2.243-.798-2.243-2.119 0-.871.492-1.403 1.004-1.71a1.779 1.779 0 01-.88-1.567c0-1.219.931-2.017 2.119-2.017 1.188 0 2.13.798 2.13 2.017 0 .768-.41 1.28-.88 1.567.511.307 1.003.839 1.003 1.71 0 1.321-1.004 2.119-2.253 2.119zm0-4.321c.594 0 1.024-.44 1.024-1.044 0-.594-.43-1.055-1.024-1.055-.594 0-1.014.461-1.014 1.055 0 .604.42 1.044 1.014 1.044zm0 3.318a1.12 1.12 0 001.126-1.137c0-.635-.45-1.147-1.126-1.147-.676 0-1.127.512-1.127 1.147a1.12 1.12 0 001.127 1.137zm6.013-.154H62.85a.118.118 0 01-.123-.123v-.819a.41.41 0 01.03-.153l2.428-4.864a.154.154 0 01.143-.093h.922c.092 0 .133.052.092.144l-2.417 4.884h1.73v-1.525c0-.072.052-.123.124-.123h.85c.071 0 .122.051.122.123v1.525h.615c.072 0 .123.052.123.123v.778a.118.118 0 01-.123.123h-.615v.973a.118.118 0 01-.122.123h-.85a.118.118 0 01-.123-.123v-.973zm4.231.973a.118.118 0 01-.123.123h-1.003a.118.118 0 01-.123-.123v-1.003c0-.072.05-.123.123-.123h1.003c.072 0 .123.051.123.123v1.003zm4.601-6.093h-2.1v1.024a.118.118 0 01-.122.123h-.81a.118.118 0 01-.122-.123v-1.833c0-.071.051-.123.123-.123h4.096c.072 0 .123.052.123.123v.727a.45.45 0 01-.03.154l-2.315 6.052c-.02.061-.072.092-.143.092h-.943c-.092 0-.133-.051-.102-.143l2.345-6.073zm4.938 5.12H76.62a.118.118 0 01-.123-.123v-.819a.41.41 0 01.03-.153l2.428-4.864a.154.154 0 01.143-.093h.922c.092 0 .133.052.092.144l-2.417 4.884h1.73v-1.525c0-.072.052-.123.124-.123h.85c.071 0 .122.051.122.123v1.525h.615c.072 0 .123.052.123.123v.778a.118.118 0 01-.123.123h-.615v.973a.118.118 0 01-.122.123h-.85a.118.118 0 01-.123-.123v-.973z"/><rect fill="#FCD535" rx="10.7" height="21.4" width="61.44" y="312.36" x="169.36"/><path fill="#202630" d="M182.664 319.306h2.768c1.031 0 1.667.636 1.667 1.613 0 .94-.573 1.281-1.084 1.326v.053c.511.018 1.308.413 1.308 1.461 0 1.012-.69 1.801-1.613 1.801h-3.046v-6.254zm1.012 2.643h1.568c.493 0 .789-.269.789-.744v-.286c0-.475-.296-.744-.789-.744h-1.568v1.774zm0 2.742h1.738c.52 0 .843-.287.843-.798v-.304c0-.511-.323-.798-.843-.798h-1.738v1.9zm7.645.098h-.036c-.17.457-.538.878-1.308.878-.959 0-1.523-.654-1.523-1.801v-2.965h.976v2.84c0 .708.296 1.084.896 1.084.502 0 .995-.26.995-.806v-3.118h.976v4.659h-.976v-.771zm5.233-3.888h.941l-1.962 5.582c-.224.627-.502.869-1.228.869h-.564v-.798h.788l.269-.788-1.694-4.865h.977l.932 2.741.269 1.013h.045l.295-1.013.932-2.741zm5.618 1.2l-.69-1.326h-.027v4.785h-.967v-6.254h1.128l2.043 3.458.69 1.326h.027v-4.784h.968v6.254h-1.129l-2.043-3.459zm6.468 3.566c-1.299 0-2.142-.949-2.142-2.437 0-1.487.843-2.437 2.142-2.437s2.141.95 2.141 2.437c0 1.488-.842 2.437-2.141 2.437zm0-.806c.663 0 1.111-.412 1.111-1.236v-.789c0-.824-.448-1.236-1.111-1.236s-1.111.412-1.111 1.236v.789c0 .824.448 1.236 1.111 1.236zm2.702-3.96h.95l.475 1.953.421 1.765h.027l.484-1.765.564-1.953h.878l.574 1.953.493 1.765h.027l.412-1.765.484-1.953h.905l-1.255 4.659h-1.102l-.986-3.432h-.017l-.368 1.308-.618 2.124h-1.075l-1.273-4.659z"/><path fill="#EAECEF" d="M209.296 356.52h4.864l-.256 1.92h-4.864l.256-1.92z"/><path fill="#E6E8EA" d="M217.604 356.52h4.876l-.244 1.92h-4.876l.244-1.92zm8.32 0h4.876l-.244 1.92h-4.876l.244-1.92z"/></g><mask height="29" width="240" y="377" x="10" maskUnits="userSpaceOnUse" style="mask-type:alpha" id="a"><path fill="#181E25" d="M10 377.64h240v28.16H10z"/></mask><g mask="url(#a)"><path fill="#EAECEF" d="M21.766 392.56l-1.866-8.041h1.52l.795 3.859.495 2.465h.035l.576-2.465.922-3.859h1.682l.921 3.859.565 2.465h.034l.507-2.465.818-3.859h1.451l-1.923 8.041H26.58l-1.025-4.251-.495-2.12h-.023l-.519 2.12-1.025 4.251h-1.728zm10.826.138c-1.22 0-1.912-.703-1.912-1.774 0-1.233.933-1.843 2.569-1.843h1.025v-.438c0-.668-.334-1.06-1.117-1.06-.691 0-1.083.346-1.371.761l-.876-.784c.438-.691 1.141-1.152 2.35-1.152 1.625 0 2.489.772 2.489 2.143v2.834h.599v1.175h-.818c-.634 0-1.025-.415-1.117-1.037h-.07c-.195.772-.852 1.175-1.75 1.175zm.496-1.071c.656 0 1.186-.3 1.186-.864v-.795h-.944c-.772 0-1.152.265-1.152.737v.196c0 .484.334.726.91.726zm6.286.933c-1.014 0-1.555-.553-1.555-1.532v-3.306h-.887v-1.176h.46c.438 0 .577-.207.577-.622v-1.025h1.324v1.647h1.233v1.176h-1.233v3.663h1.14v1.175h-1.059zm4.76.138c-1.775 0-2.777-1.221-2.777-3.156 0-1.924 1.002-3.134 2.776-3.134 1.21 0 2.005.576 2.362 1.521l-1.21.541c-.138-.507-.518-.875-1.152-.875-.818 0-1.232.576-1.232 1.417v1.094c0 .841.414 1.406 1.232 1.406.703 0 1.048-.404 1.267-.945l1.13.541c-.392 1.06-1.233 1.59-2.397 1.59zm3.532-8.663h1.475v3.514h.058c.241-.645.748-1.141 1.681-1.141 1.233 0 1.924.853 1.924 2.35v3.802H51.33v-3.652c0-.852-.288-1.29-.991-1.29-.61 0-1.198.322-1.198.968v3.974h-1.475v-8.525zm8.247 8.525c-1.002 0-1.474-.53-1.474-1.452v-7.073h1.474v7.35h.795v1.175h-.795zm2.65-6.889c-.611 0-.865-.311-.865-.737v-.231c0-.426.254-.737.864-.737.6 0 .864.311.864.737v.231c0 .426-.265.737-.864.737zm-.738.875H59.3v6.014h-1.475v-6.014zm5.154 6.152c-1.14 0-1.89-.415-2.489-1.106l.899-.875c.438.507.968.818 1.647.818.703 0 1.003-.265 1.003-.692 0-.345-.208-.564-.738-.633l-.599-.081c-1.29-.161-2.004-.726-2.004-1.82 0-1.163.91-1.901 2.28-1.901 1.176 0 1.775.346 2.35.945l-.863.864a1.985 1.985 0 00-1.44-.645c-.634 0-.91.253-.91.622 0 .403.219.587.783.68l.61.08c1.314.184 1.947.772 1.947 1.774 0 1.164-.979 1.97-2.476 1.97zm5.566-.138c-1.013 0-1.555-.553-1.555-1.532v-3.306h-.887v-1.176h.46c.439 0 .577-.207.577-.622v-1.025h1.325v1.647h1.232v1.176h-1.232v3.663h1.14v1.175h-1.06zM37.42 402.68h15.36v1.92H37.42z"/><path fill="#848E9C" d="M90.027 392.698c-2.12 0-3.468-1.394-3.468-4.101s1.348-4.216 3.468-4.216c1.44 0 2.373.61 2.937 1.854l-1.301.692c-.23-.715-.738-1.198-1.636-1.198-1.13 0-1.855.817-1.855 2.188v1.268c0 1.382.726 2.165 1.855 2.165.91 0 1.474-.553 1.74-1.278l1.232.725c-.576 1.198-1.532 1.901-2.972 1.901zm6.562 0c-1.717 0-2.788-1.221-2.788-3.156 0-1.924 1.071-3.134 2.788-3.134 1.728 0 2.799 1.21 2.799 3.134 0 1.935-1.071 3.156-2.8 3.156zm0-1.186c.771 0 1.255-.496 1.255-1.406v-1.117c0-.899-.484-1.394-1.255-1.394-.76 0-1.245.495-1.245 1.394v1.117c0 .91.484 1.406 1.245 1.406zm4.843-5.841c-.61 0-.864-.311-.864-.737v-.231c0-.426.254-.737.864-.737.6 0 .864.311.864.737v.231c0 .426-.264.737-.864.737zm-.737.875h1.475v6.014h-1.475v-6.014zm3.184 6.014v-6.014h1.474v1.003h.058c.242-.645.749-1.141 1.682-1.141 1.233 0 1.924.853 1.924 2.35v3.802h-1.475v-3.652c0-.852-.288-1.29-.99-1.29-.611 0-1.199.322-1.199.968v3.974h-1.474z"/></g><path fill="#F6921A" d="M39.775 437.074c-1.362 5.494-6.931 8.823-12.41 7.461-5.478-1.362-8.823-6.931-7.461-12.409 1.362-5.494 6.916-8.823 12.41-7.461 5.494 1.377 8.823 6.931 7.461 12.409z"/><path fill="#fff" d="M34.277 433.078c.197-1.362-.833-2.089-2.255-2.588l.454-1.846-1.12-.288-.454 1.801c-.303-.076-.606-.136-.893-.212l.454-1.816-1.12-.287-.454 1.846c-.242-.061-.484-.106-.711-.167l-1.544-.393-.303 1.195s.833.197.817.197c.454.121.545.409.53.651l-.53 2.104c.03.015.076.015.122.03-.03-.015-.076-.015-.122-.03l-.741 2.951c-.06.136-.197.348-.515.272.015.015-.817-.197-.817-.197l-.56 1.287 1.468.363c.273.075.545.136.802.212l-.469 1.861 1.12.288.454-1.847c.303.091.605.167.893.227l-.454 1.832 1.12.287.47-1.861c1.921.363 3.359.211 3.964-1.514.484-1.392-.03-2.194-1.029-2.724.727-.151 1.271-.635 1.423-1.634zm-2.573 3.602c-.348 1.392-2.694.635-3.466.454l.62-2.467c.773.181 3.21.56 2.846 2.013zm.348-3.617c-.318 1.271-2.27.62-2.906.469l.56-2.24c.636.151 2.679.439 2.346 1.771z"/><path fill="#EAECEF" d="M51.265 422.919h3.72c1.325 0 2.132.818 2.132 2.062 0 1.221-.703 1.682-1.44 1.728v.069c.703.012 1.74.507 1.74 1.878 0 1.29-.888 2.304-2.074 2.304h-4.078v-8.041zm1.52 3.352h1.878c.553 0 .876-.322.876-.852v-.357c0-.542-.323-.853-.876-.853h-1.878v2.062zm0 3.399h2.12c.576 0 .922-.311.922-.876v-.391c0-.565-.346-.888-.922-.888h-2.12v2.155zm6.764-5.599c-.611 0-.864-.311-.864-.737v-.231c0-.426.253-.737.864-.737.599 0 .864.311.864.737v.231c0 .426-.265.737-.864.737zm-.738.876h1.475v6.013H58.81v-6.013zm5.062 6.013c-1.014 0-1.555-.553-1.555-1.532v-3.306h-.887v-1.175h.46c.438 0 .576-.208.576-.623v-1.025h1.325v1.648h1.233v1.175h-1.233v3.663h1.14v1.175h-1.06zm4.759.138c-1.774 0-2.776-1.221-2.776-3.156 0-1.924 1.002-3.134 2.776-3.134 1.21 0 2.004.576 2.361 1.521l-1.21.541c-.137-.507-.517-.875-1.151-.875-.818 0-1.233.576-1.233 1.417v1.094c0 .841.415 1.406 1.233 1.406.703 0 1.048-.404 1.267-.945l1.13.541c-.393 1.06-1.234 1.59-2.397 1.59zm5.861 0c-1.716 0-2.787-1.221-2.787-3.156 0-1.924 1.071-3.134 2.787-3.134 1.728 0 2.8 1.21 2.8 3.134 0 1.935-1.072 3.156-2.8 3.156zm0-1.186c.772 0 1.256-.496 1.256-1.406v-1.117c0-.899-.484-1.394-1.256-1.394-.76 0-1.244.495-1.244 1.394v1.117c0 .91.484 1.406 1.244 1.406zm4.844-5.841c-.61 0-.864-.311-.864-.737v-.231c0-.426.254-.737.864-.737.6 0 .864.311.864.737v.231c0 .426-.265.737-.864.737zm-.737.876h1.475v6.013H78.6v-6.013zm3.184 6.013v-6.013h1.474v1.002h.058c.242-.645.749-1.141 1.682-1.141 1.233 0 1.924.853 1.924 2.35v3.802h-1.475v-3.652c0-.852-.288-1.29-.99-1.29-.611 0-1.199.322-1.199.968v3.974h-1.474z"/><path fill="#848E9C" d="M51.272 440.732h2.94c1.177 0 1.904.728 1.904 1.844 0 1.065-.686 1.444-1.157 1.515v.062c.512.03 1.403.471 1.403 1.659 0 1.177-.789 2.068-1.843 2.068h-3.247v-7.148zm.86 3.093h1.977c.676 0 1.085-.358 1.085-.993v-.348c0-.635-.41-.994-1.085-.994h-1.977v2.335zm0 3.297h2.12c.737 0 1.188-.389 1.188-1.106v-.348c0-.717-.45-1.106-1.188-1.106h-2.12v2.56zm7.977-5.632v6.39h-.86v-6.39h-2.274v-.758h5.407v.758H60.11zm5.772 6.513c-1.802 0-2.877-1.27-2.877-3.656s1.075-3.737 2.877-3.737c1.188 0 2.007.573 2.458 1.566l-.696.42c-.287-.737-.88-1.218-1.762-1.218-1.228 0-1.955.972-1.955 2.437v1.065c0 1.464.727 2.355 1.955 2.355.912 0 1.536-.512 1.823-1.29l.686.43c-.45 1.003-1.32 1.628-2.509 1.628z"/><path fill="#2EBD85" d="M204.903 426.721h1.705c.08 0 .138.057.138.138v1.129c0 .08-.058.138-.138.138h-1.705v1.717c0 .08-.058.138-.138.138h-1.129a.134.134 0 01-.139-.138v-1.717h-1.716a.133.133 0 01-.138-.138v-1.129c0-.081.057-.138.138-.138h1.716v-1.705c0-.081.058-.139.139-.139h1.129c.08 0 .138.058.138.139v1.705zm8.071 2.972c.08 0 .138.057.138.138v.991c0 .08-.058.138-.138.138h-4.447a.133.133 0 01-.138-.138v-1.037c0-.069.011-.127.057-.173l2.95-3.663c.253-.311.357-.576.357-.91 0-.645-.38-1.037-.991-1.037-.553 0-.945.369-.991.933-.011.092-.069.138-.15.138h-1.082c-.081 0-.139-.046-.139-.138.069-1.29.991-2.154 2.362-2.154 1.417 0 2.35.898 2.35 2.281 0 .61-.184 1.025-.772 1.751l-2.35 2.88h2.984zm3.297 1.129c0 .08-.058.138-.138.138h-1.429a.133.133 0 01-.138-.138v-1.429c0-.08.058-.138.138-.138h1.429c.08 0 .138.058.138.138v1.429zm3.884.276c-.737 0-1.313-.207-1.728-.622-.345-.345-.541-.795-.61-1.405-.012-.092.046-.139.126-.15l1.095-.081c.08-.011.126.035.149.115.104.542.438.818.968.818.726 0 1.037-.437 1.037-1.463 0-.979-.277-1.417-.899-1.417-.391 0-.668.173-.829.496-.035.08-.081.115-.161.103l-1.187-.138c-.081-.011-.127-.057-.127-.138v-4.159c0-.08.058-.138.139-.138h4.101c.08 0 .138.058.138.138v.991a.133.133 0 01-.138.138h-2.961v1.913c.3-.312.714-.473 1.221-.473.542 0 1.002.173 1.348.519.484.483.714 1.186.714 2.165 0 1.014-.207 1.671-.691 2.155-.426.426-.991.633-1.705.633zm6.385-4.827c1.232 0 2.131.991 2.131 2.35 0 1.486-.968 2.477-2.396 2.477-1.429 0-2.408-.979-2.408-2.431 0-.564.161-1.082.576-1.935l1.832-3.709a.173.173 0 01.161-.104h1.163c.104 0 .15.058.104.161l-1.613 3.249c.139-.035.288-.058.45-.058zm-.277 3.479c.576 0 .968-.426.968-1.106 0-.656-.38-1.094-.968-1.094-.576 0-.956.438-.956 1.094 0 .669.38 1.106.956 1.106zm5.348-2.764c-.899 0-1.671-.53-1.671-1.579v-1.14c0-1.048.772-1.578 1.671-1.578.898 0 1.67.53 1.67 1.578v1.14c0 1.049-.772 1.579-1.67 1.579zm3.882-4.125a.173.173 0 01.161-.103h.968c.104 0 .15.057.104.161l-3.756 7.937a.173.173 0 01-.161.104h-.968c-.104 0-.15-.058-.104-.161l3.756-7.938zm-3.882 3.088c.334 0 .553-.208.553-.634v-.956c0-.426-.219-.622-.553-.622-.323 0-.542.196-.542.622v.956c0 .426.219.634.542.634zm5.23 5.08c-.899 0-1.671-.53-1.671-1.578v-1.141c0-1.048.772-1.578 1.671-1.578.898 0 1.67.53 1.67 1.578v1.141c0 1.048-.772 1.578-1.67 1.578zm0-1.048c.334 0 .553-.196.553-.622v-.956c0-.427-.219-.634-.553-.634-.323 0-.553.207-.553.634v.956c0 .426.23.622.553.622z"/><path fill="#EAECEF" d="M193.415 448.72v-.84c-1.034-.072-1.731-.553-2.233-1.219l.605-.542c.44.583.952.942 1.638 1.034v-2.632c-1.403-.317-2.027-.891-2.027-1.945 0-1.096.829-1.731 2.017-1.844v-.839h.635v.829c.921.082 1.587.482 2.078 1.157l-.624.471a2.093 2.093 0 00-1.465-.89v2.396l.093.02c1.413.318 2.037.881 2.037 1.956 0 1.167-.819 1.925-2.119 2.048v.84h-.635zm-1.209-6.206c0 .697.4.983 1.219 1.209v-2.263c-.737.092-1.219.46-1.219 1.054zm3.154 3.369c0-.686-.368-1.024-1.321-1.249v2.519c.809-.102 1.321-.573 1.321-1.27zm2.26 1.997c-.072 0-.102-.031-.102-.102v-.553c0-.052.02-.103.051-.144l2.58-3.287c.338-.44.512-.85.512-1.249 0-.666-.45-1.126-1.136-1.126-.656 0-1.065.348-1.168 1.054-.01.072-.051.092-.112.082l-.646-.133a.113.113 0 01-.081-.133c.153-.911.839-1.69 2.027-1.69 1.229 0 2.017.809 2.017 1.946 0 .563-.235 1.137-.696 1.72l-2.212 2.775v.021h2.806c.072 0 .102.031.102.102v.615c0 .071-.03.102-.102.102h-3.84zm6.523 0c-.082 0-.103-.031-.072-.102l1.608-2.97-.031-.02c-.154.112-.399.163-.717.163-1.157 0-2.038-.85-2.038-2.119 0-1.362.932-2.222 2.212-2.222 1.27 0 2.181.839 2.181 2.191 0 .502-.163 1.044-.481 1.628l-1.812 3.379c-.031.052-.072.072-.144.072h-.706zm-.338-5.1c0 .902.645 1.352 1.28 1.352.645 0 1.29-.45 1.29-1.352 0-.911-.645-1.361-1.28-1.361-.645 0-1.29.45-1.29 1.361zm4.874 6.093c-.061 0-.092-.03-.092-.092v-1.997c0-.071.031-.102.102-.102h.717c.072 0 .102.031.102.102v.953c0 .092-.02.174-.061.225l-.635.84c-.041.051-.082.071-.133.071zm4.306-.87c-1.127 0-1.977-.615-2.13-1.526-.011-.061.02-.102.092-.123l.645-.164c.061-.01.102 0 .123.072.184.625.614.911 1.27.911.757 0 1.228-.522 1.228-1.259 0-.809-.512-1.331-1.31-1.331h-.318c-.071 0-.112-.041-.112-.113v-.594c0-.072.041-.112.112-.112h.307c.717 0 1.188-.461 1.188-1.199 0-.665-.44-1.136-1.147-1.136-.604 0-.942.297-1.136.88-.021.062-.062.093-.123.082l-.635-.163c-.072-.021-.092-.052-.082-.123.123-.85.911-1.495 2.007-1.495 1.249 0 2.028.778 2.028 1.935 0 .655-.297 1.178-.891 1.546v.021c.532.204 1.024.86 1.024 1.771 0 1.249-.891 2.12-2.14 2.12zm5.57 0c-1.311 0-2.212-.85-2.212-2.11 0-.788.41-1.443 1.014-1.761v-.031c-.481-.256-.85-.819-.85-1.515 0-1.106.809-1.976 2.048-1.976 1.26 0 2.048.87 2.048 1.976 0 .696-.369 1.259-.85 1.515v.031c.604.318 1.014.973 1.014 1.761 0 1.26-.901 2.11-2.212 2.11zm-1.137-5.438c0 .768.564 1.147 1.137 1.147.563 0 1.137-.389 1.137-1.147 0-.757-.564-1.136-1.137-1.136-.563 0-1.137.389-1.137 1.136zm1.137 4.619c.87 0 1.311-.666 1.311-1.321 0-.666-.43-1.321-1.311-1.321s-1.311.655-1.311 1.31c0 .666.441 1.332 1.311 1.332zm6.308.696c-.072 0-.103-.031-.103-.102v-1.086c0-.041-.02-.061-.071-.061h-2.775c-.072 0-.103-.031-.103-.103v-.583a.28.28 0 01.031-.123l2.314-5.008a.154.154 0 01.144-.082h.706c.072 0 .103.031.072.093l-2.273 4.976v.021h1.884c.051 0 .071-.021.071-.062v-1.874c0-.071.031-.102.103-.102h.676c.071 0 .102.031.102.102v1.874c0 .041.021.062.061.062h.656c.072 0 .102.03.102.102v.604c0 .072-.03.103-.102.103h-.656c-.04 0-.061.02-.061.061v1.086c0 .071-.031.102-.102.102h-.676zm2.734-.102v-.881c0-.072.031-.102.102-.102h.778c.072 0 .103.03.103.102v.881c0 .071-.031.102-.103.102h-.778c-.071 0-.102-.031-.102-.102zm3.239.102c-.082 0-.092-.031-.061-.113l2.437-6.174v-.041h-2.181c-.041 0-.062.02-.062.061v.891c0 .072-.031.113-.102.113h-.635c-.072 0-.103-.041-.103-.113v-1.669c0-.072.031-.103.103-.103h3.819c.072 0 .103.031.103.103v.655c0 .031 0 .062-.021.103l-2.457 6.195c-.031.061-.072.092-.144.092h-.696zm7.547 0c-.072 0-.103-.031-.103-.102v-1.086c0-.041-.02-.061-.071-.061h-2.775c-.072 0-.103-.031-.103-.103v-.583a.28.28 0 01.031-.123l2.314-5.008a.154.154 0 01.144-.082h.706c.072 0 .103.031.072.093l-2.273 4.976v.021h1.884c.051 0 .071-.021.071-.062v-1.874c0-.071.031-.102.103-.102h.676c.071 0 .102.031.102.102v1.874c0 .041.021.062.061.062h.656c.072 0 .102.03.102.102v.604c0 .072-.03.103-.102.103h-.656c-.04 0-.061.02-.061.061v1.086c0 .071-.031.102-.102.102h-.676z"/><circle fill="#F0B90B" r="10.24" cy="488.36" cx="29.84"/><path fill="#000" d="M26.192 483.647l3.607-2.1 3.607 2.1-1.326.775-2.28-1.324-2.282 1.324-1.326-.775zm7.214 2.648l-1.326-.776-2.28 1.324-2.282-1.324-1.326.776v1.551l2.281 1.324v2.648l1.326.775 1.326-.775v-2.648l2.281-1.324v-1.551zm0 4.199v-1.552l-1.326.776v1.551l1.326-.775zm.942.548l-2.281 1.324v1.551l3.607-2.099v-4.199l-1.326.775v2.648zm-1.326-6.071l1.326.775v1.552l1.326-.776v-1.551l-1.326-.776-1.326.776zm-4.549 7.957v1.551l1.326.776 1.326-.776v-1.551l-1.326.775-1.326-.775zm-2.28-2.434l1.325.775v-1.551l-1.326-.776v1.552zm2.28-5.523l1.326.775 1.326-.775-1.326-.776-1.326.776zm-3.222.775l1.326-.775-1.326-.776-1.326.776v1.551l1.326.776v-1.552zm0 2.648l-1.326-.775v4.199l3.607 2.099v-1.551l-2.281-1.324v-2.648z"/><path fill="#EAECEF" d="M51.265 476.679h3.72c1.325 0 2.132.818 2.132 2.062 0 1.221-.703 1.682-1.44 1.728v.069c.703.012 1.74.507 1.74 1.878 0 1.29-.888 2.304-2.074 2.304h-4.078v-8.041zm1.52 3.352h1.878c.553 0 .876-.322.876-.852v-.357c0-.542-.323-.853-.876-.853h-1.878v2.062zm0 3.399h2.12c.576 0 .922-.311.922-.876v-.391c0-.565-.346-.888-.922-.888h-2.12v2.155zm8.423-2.834l-.83-1.671h-.035v5.795h-1.44v-8.041h1.67l2.42 4.124.83 1.671h.034v-5.795h1.44v8.041h-1.67l-2.42-4.124zm5.975-3.917h3.721c1.325 0 2.132.818 2.132 2.062 0 1.221-.703 1.682-1.44 1.728v.069c.702.012 1.74.507 1.74 1.878 0 1.29-.888 2.304-2.075 2.304h-4.078v-8.041zm1.521 3.352h1.878c.553 0 .875-.322.875-.852v-.357c0-.542-.322-.853-.875-.853h-1.878v2.062zm0 3.399h2.12c.576 0 .921-.311.921-.876v-.391c0-.565-.345-.888-.921-.888h-2.12v2.155z"/><path fill="#848E9C" d="M51.272 494.492h2.94c1.177 0 1.904.728 1.904 1.844 0 1.065-.686 1.444-1.157 1.515v.062c.512.03 1.403.471 1.403 1.659 0 1.177-.789 2.068-1.843 2.068h-3.247v-7.148zm.86 3.093h1.977c.676 0 1.085-.358 1.085-.993v-.348c0-.635-.41-.994-1.085-.994h-1.977v2.335zm0 3.297h2.12c.737 0 1.188-.389 1.188-1.106v-.348c0-.717-.45-1.106-1.188-1.106h-2.12v2.56zm7.56-3.604l-.86-1.587h-.03v5.949h-.84v-7.148h.994l2.61 4.363.861 1.587h.03v-5.95h.84v7.148h-.993l-2.611-4.362zm5.51-2.786h2.94c1.177 0 1.904.728 1.904 1.844 0 1.065-.686 1.444-1.157 1.515v.062c.512.03 1.403.471 1.403 1.659 0 1.177-.789 2.068-1.844 2.068h-3.246v-7.148zm.86 3.093h1.977c.676 0 1.085-.358 1.085-.993v-.348c0-.635-.41-.994-1.085-.994h-1.977v2.335zm0 3.297h2.12c.737 0 1.188-.389 1.188-1.106v-.348c0-.717-.45-1.106-1.188-1.106h-2.12v2.56z"/><path fill="#2EBD85" d="M204.903 480.481h1.705c.08 0 .138.057.138.138v1.129c0 .08-.058.138-.138.138h-1.705v1.717c0 .08-.058.138-.138.138h-1.129a.134.134 0 01-.139-.138v-1.717h-1.716a.133.133 0 01-.138-.138v-1.129c0-.081.057-.138.138-.138h1.716v-1.705c0-.081.058-.139.139-.139h1.129c.08 0 .138.058.138.139v1.705zm6.274 3.029h-2.938a.132.132 0 01-.138-.138v-.956c0-.058.023-.115.046-.173l2.742-5.46a.173.173 0 01.161-.104h1.163c.104 0 .15.058.104.161l-2.742 5.484h1.602v-1.625c0-.08.057-.138.138-.138h1.129c.081 0 .138.058.138.138v1.625h.599c.081 0 .138.057.138.138v.91a.132.132 0 01-.138.138h-.599v1.072c0 .08-.057.138-.138.138h-1.129a.133.133 0 01-.138-.138v-1.072zm5.094 1.072c0 .08-.058.138-.138.138h-1.429a.133.133 0 01-.138-.138v-1.429c0-.08.058-.138.138-.138h1.429c.08 0 .138.058.138.138v1.429zm6.119-1.129c.081 0 .138.057.138.138v.991c0 .08-.057.138-.138.138h-4.447a.133.133 0 01-.138-.138v-1.037c0-.069.012-.127.058-.173l2.949-3.663c.253-.311.357-.576.357-.91 0-.645-.38-1.037-.991-1.037-.553 0-.944.369-.991.933-.011.092-.069.138-.149.138h-1.083c-.081 0-.138-.046-.138-.138.069-1.29.99-2.154 2.361-2.154 1.417 0 2.35.898 2.35 2.281 0 .61-.184 1.025-.772 1.751l-2.35 2.88h2.984zm3.873-6.912c1.429 0 2.396.99 2.396 2.419 0 .576-.138 1.094-.564 1.947l-1.832 3.709a.173.173 0 01-.161.104h-1.164c-.103 0-.149-.058-.103-.161l1.624-3.249a1.87 1.87 0 01-.461.046c-1.232 0-2.12-.979-2.12-2.338 0-1.487.957-2.477 2.385-2.477zm.012 3.536c.587 0 .944-.414.944-1.094 0-.645-.357-1.094-.944-1.094-.588 0-.957.437-.957 1.094 0 .68.358 1.094.957 1.094zm5.336.669c-.899 0-1.671-.53-1.671-1.579v-1.14c0-1.048.772-1.578 1.671-1.578.898 0 1.67.53 1.67 1.578v1.14c0 1.049-.772 1.579-1.67 1.579zm3.882-4.125a.173.173 0 01.161-.103h.968c.104 0 .15.057.104.161l-3.756 7.937a.173.173 0 01-.161.104h-.968c-.104 0-.15-.058-.104-.161l3.756-7.938zm-3.882 3.088c.334 0 .553-.208.553-.634v-.956c0-.426-.219-.622-.553-.622-.323 0-.542.196-.542.622v.956c0 .426.219.634.542.634zm5.23 5.08c-.899 0-1.671-.53-1.671-1.578v-1.141c0-1.048.772-1.578 1.671-1.578.898 0 1.67.53 1.67 1.578v1.141c0 1.048-.772 1.578-1.67 1.578zm0-1.048c.334 0 .553-.196.553-.622v-.956c0-.427-.219-.634-.553-.634-.323 0-.553.207-.553.634v.956c0 .426.23.622.553.622z"/><path fill="#EAECEF" d="M206.875 502.48v-.84c-1.034-.072-1.731-.553-2.233-1.219l.605-.542c.44.583.952.942 1.638 1.034v-2.632c-1.403-.317-2.027-.891-2.027-1.945 0-1.096.829-1.731 2.017-1.844v-.839h.635v.829c.921.082 1.587.482 2.078 1.157l-.624.471a2.093 2.093 0 00-1.465-.89v2.396l.093.02c1.413.318 2.037.881 2.037 1.956 0 1.167-.819 1.925-2.119 2.048v.84h-.635zm-1.209-6.206c0 .697.4.983 1.219 1.209v-2.263c-.737.092-1.219.46-1.219 1.054zm3.154 3.369c0-.686-.368-1.024-1.321-1.249v2.519c.809-.102 1.321-.573 1.321-1.27zm2.26 1.997c-.072 0-.102-.031-.102-.102v-.553c0-.052.02-.103.051-.144l2.58-3.287c.338-.44.512-.85.512-1.249 0-.666-.45-1.126-1.136-1.126-.656 0-1.065.348-1.168 1.054-.01.072-.051.092-.112.082l-.646-.133a.113.113 0 01-.081-.133c.153-.911.839-1.69 2.027-1.69 1.229 0 2.017.809 2.017 1.946 0 .563-.235 1.137-.696 1.72l-2.212 2.775v.021h2.806c.072 0 .102.031.102.102v.615c0 .071-.03.102-.102.102h-3.84zm7.455.123c-1.127 0-1.977-.615-2.13-1.526-.011-.061.02-.102.092-.123l.645-.164c.061-.01.102 0 .123.072.184.625.614.911 1.27.911.757 0 1.228-.522 1.228-1.259 0-.809-.512-1.331-1.31-1.331h-.318c-.071 0-.112-.041-.112-.113v-.594c0-.072.041-.112.112-.112h.307c.717 0 1.188-.461 1.188-1.199 0-.665-.44-1.136-1.147-1.136-.604 0-.942.297-1.136.88-.021.062-.062.093-.123.082l-.635-.163c-.072-.021-.092-.052-.082-.123.123-.85.911-1.495 2.007-1.495 1.249 0 2.028.778 2.028 1.935 0 .655-.297 1.178-.891 1.546v.021c.532.204 1.024.86 1.024 1.771 0 1.249-.891 2.12-2.14 2.12zm4.618-.123c-.082 0-.103-.031-.072-.102l1.608-2.97-.031-.02c-.154.112-.399.163-.717.163-1.157 0-2.038-.85-2.038-2.119 0-1.362.932-2.222 2.212-2.222 1.27 0 2.181.839 2.181 2.191 0 .502-.163 1.044-.481 1.628l-1.812 3.379c-.031.052-.072.072-.144.072h-.706zm-.338-5.1c0 .902.645 1.352 1.28 1.352.645 0 1.29-.45 1.29-1.352 0-.911-.645-1.361-1.28-1.361-.645 0-1.29.45-1.29 1.361zm4.782 4.998v-.881c0-.072.031-.102.102-.102h.778c.072 0 .103.03.103.102v.881c0 .071-.031.102-.103.102h-.778c-.071 0-.102-.031-.102-.102zm4.202 0v-5.96h-.031l-1.147.809c-.031.02-.113.031-.113-.062v-.757c0-.062.021-.113.072-.144l1.198-.87a.273.273 0 01.164-.062h.614c.072 0 .103.031.103.103v6.943c0 .071-.031.102-.103.102h-.655c-.072 0-.102-.031-.102-.102zm5.887.225c-1.095 0-1.884-.615-2.007-1.495-.01-.072.011-.103.082-.123l.625-.164c.072-.02.123.021.133.092.082.543.522.871 1.167.871.533 0 .881-.246 1.055-.707.062-.164.092-.461.092-.891 0-.409-.041-.717-.102-.911-.143-.461-.512-.696-1.045-.696-.532 0-.901.307-1.054.665-.031.072-.072.113-.123.113h-.625c-.071 0-.102-.041-.102-.113v-3.809c0-.072.031-.103.102-.103h3.605c.071 0 .102.031.102.103v.614c0 .072-.031.103-.102.103h-2.827c-.04 0-.061.02-.061.061v2.017h.031c.246-.307.635-.471 1.177-.471.891 0 1.547.42 1.772 1.178.102.338.153.747.153 1.249 0 .471-.051.86-.143 1.157-.246.799-.993 1.26-1.905 1.26z"/><path fill="#181A20" d="M10 475.88h240V529H10z"/><path fill="#707A8A" d="M75.92 484.2c0-.707.573-1.28 1.28-1.28h8.96c.707 0 1.28.573 1.28 1.28v7.68a1.28 1.28 0 01-1.28 1.28h-5.12l-2.56 2.56v-2.56H77.2a1.28 1.28 0 01-1.28-1.28v-7.68zm3.342 1.709a4.8 4.8 0 014.801 4.8h1.28a6.08 6.08 0 00-6.08-6.08v1.28zm2.24 4.8a2.24 2.24 0 00-2.24-2.24v-1.28a3.52 3.52 0 013.52 3.52h-1.28zm-2.24.96a.96.96 0 10.001-1.919.96.96 0 000 1.919z" clip-rule="evenodd" fill-rule="evenodd"/><path fill="#EAECEF" d="M27.28 493.16v-3.2c0-.707.573-1.28 1.28-1.28h.64c.707 0 1.28.573 1.28 1.28v3.2a1.28 1.28 0 01-1.28 1.28h-.64a1.28 1.28 0 01-1.28-1.28zm5.76-10.24a1.28 1.28 0 00-1.28 1.28v8.96c0 .707.573 1.28 1.28 1.28h.64a1.28 1.28 0 001.28-1.28v-8.96a1.28 1.28 0 00-1.28-1.28h-.64zm4.48 3.84a1.28 1.28 0 00-1.28 1.28v5.12c0 .707.573 1.28 1.28 1.28h.64a1.28 1.28 0 001.28-1.28v-5.12a1.28 1.28 0 00-1.28-1.28h-.64zm-15.086 13.133h.857l1.197 2.272h.038l1.197-2.272h.82v4.467h-.692v-3.418h-.032l-.352.724-.979 1.785-.98-1.785-.351-.724h-.032v3.418h-.691v-4.467zm7.6 4.467c-.365 0-.557-.23-.602-.557H29.4c-.128.416-.487.634-.973.634-.685 0-1.075-.391-1.075-.992 0-.659.492-.999 1.42-.999h.602v-.281c0-.403-.217-.64-.685-.64-.39 0-.627.192-.793.454l-.416-.377c.217-.372.608-.647 1.254-.647.858 0 1.338.423 1.338 1.165v1.67h.352v.57h-.39zm-1.409-.454c.43 0 .75-.205.75-.532v-.48h-.59c-.486 0-.723.16-.723.448v.116c0 .294.218.448.563.448zm2.482.454v-3.328h.698v.64h.032c.096-.339.384-.64.915-.64h.186v.672h-.275c-.55 0-.858.186-.858.531v2.125h-.698zm2.45-4.736h.698v2.906h.032l.46-.596.8-.902h.814l-1.165 1.286 1.305 2.042h-.832l-.953-1.587-.461.499v1.088h-.698v-4.736zm4.668 4.813c-.947 0-1.53-.679-1.53-1.741s.583-1.741 1.53-1.741c.98 0 1.479.736 1.479 1.658v.262h-2.285v.109c0 .512.314.877.877.877.41 0 .685-.192.877-.499l.41.403c-.25.403-.737.672-1.358.672zm0-2.938c-.48 0-.806.359-.806.871v.044h1.549v-.064c0-.512-.282-.851-.743-.851zm3.173 2.861c-.48 0-.736-.269-.736-.723v-2.035h-.519v-.57h.282c.23 0 .307-.096.307-.326v-.583h.627v.909h.698v.57h-.698v2.188h.647v.57h-.608zm2.472.077c-.628 0-1.037-.237-1.35-.627l.447-.41c.243.294.544.474.941.474.403 0 .608-.167.608-.448 0-.212-.128-.372-.474-.416l-.307-.039c-.678-.083-1.094-.377-1.094-.992 0-.646.505-1.024 1.235-1.024.602 0 .94.199 1.242.531l-.43.41a1.06 1.06 0 00-.812-.378c-.384 0-.563.167-.563.416 0 .256.16.372.512.429l.307.039c.73.108 1.056.428 1.056.966 0 .64-.518 1.069-1.318 1.069z"/><path fill="#848E9C" d="M69.609 499.893h1.58c1.14 0 1.888.742 1.888 2.233 0 1.492-.748 2.234-1.888 2.234h-1.58v-4.467zm1.58 3.827c.666 0 1.114-.429 1.114-1.235v-.717c0-.806-.448-1.235-1.114-1.235h-.857v3.187h.857zm3.09-3.283c-.289 0-.417-.154-.417-.365v-.109c0-.211.128-.365.416-.365s.41.154.41.365v.109c0 .211-.122.365-.41.365zm-.353.595h.698v3.328h-.698v-3.328zm2.75 3.405c-.627 0-1.037-.237-1.35-.627l.448-.41c.243.294.543.474.94.474.404 0 .608-.167.608-.448 0-.212-.128-.372-.473-.416l-.308-.039c-.678-.083-1.094-.377-1.094-.992 0-.646.506-1.024 1.235-1.024.602 0 .941.199 1.242.531l-.429.41a1.06 1.06 0 00-.813-.378c-.384 0-.563.167-.563.416 0 .256.16.372.512.429l.307.039c.73.108 1.056.428 1.056.966 0 .64-.518 1.069-1.318 1.069zm3.393 0c-.96 0-1.51-.679-1.51-1.741s.55-1.741 1.51-1.741c.665 0 1.088.327 1.286.819l-.576.269c-.096-.307-.333-.505-.71-.505-.512 0-.775.352-.775.864v.595c0 .512.263.864.775.864.403 0 .64-.218.78-.551l.532.282c-.218.544-.672.845-1.312.845zm3.244 0c-.928 0-1.53-.679-1.53-1.741s.602-1.741 1.53-1.741 1.53.679 1.53 1.741-.602 1.741-1.53 1.741zm0-.576c.474 0 .794-.295.794-.883v-.564c0-.588-.32-.883-.794-.883-.474 0-.794.295-.794.883v.564c0 .588.32.883.794.883zm2.98.499l-1.133-3.328h.692l.505 1.517.34 1.165h.038l.339-1.165.518-1.517h.666l-1.146 3.328h-.819zm3.807.077c-.947 0-1.53-.679-1.53-1.741s.583-1.741 1.53-1.741c.98 0 1.479.736 1.479 1.658v.262h-2.285v.109c0 .512.314.877.877.877.41 0 .685-.192.877-.499l.41.403c-.25.403-.737.672-1.358.672zm0-2.938c-.48 0-.806.359-.806.871v.044h1.549v-.064c0-.512-.282-.851-.743-.851zm2.251 2.861v-3.328h.698v.64h.032c.096-.339.384-.64.915-.64h.186v.672h-.276c-.55 0-.857.186-.857.531v2.125h-.698zm74.817.077c-.749 0-1.261-.295-1.632-.755l.499-.468c.314.384.685.583 1.171.583.57 0 .864-.282.864-.711 0-.345-.179-.544-.697-.646l-.397-.07c-.864-.16-1.306-.564-1.306-1.274 0-.794.615-1.28 1.562-1.28.672 0 1.165.243 1.51.685l-.505.448c-.231-.301-.551-.493-1.043-.493-.512 0-.807.211-.807.602 0 .371.231.531.711.627l.396.083c.89.173 1.293.57 1.293 1.28 0 .832-.595 1.389-1.619 1.389zm3.742 0c-.947 0-1.53-.679-1.53-1.741s.583-1.741 1.53-1.741c.979 0 1.478.736 1.478 1.658v.262h-2.285v.109c0 .512.314.877.877.877.41 0 .685-.192.877-.499l.41.403c-.25.403-.736.672-1.357.672zm0-2.938c-.48 0-.807.359-.807.871v.044h1.549v-.064c0-.512-.281-.851-.742-.851zm2.251 2.861v-3.328h.697v.64h.032c.096-.339.384-.64.915-.64h.186v.672h-.275c-.551 0-.858.186-.858.531v2.125h-.697zm3.229 0l-1.133-3.328h.691l.506 1.517.339 1.165h.039l.339-1.165.518-1.517h.666l-1.146 3.328h-.819zm2.904-3.923c-.288 0-.416-.154-.416-.365v-.109c0-.211.128-.365.416-.365s.409.154.409.365v.109c0 .211-.121.365-.409.365zm-.352.595h.697v3.328h-.697v-3.328zm2.98 3.405c-.96 0-1.51-.679-1.51-1.741s.55-1.741 1.51-1.741c.666 0 1.088.327 1.286.819l-.576.269c-.096-.307-.332-.505-.71-.505-.512 0-.774.352-.774.864v.595c0 .512.262.864.774.864.403 0 .64-.218.781-.551l.531.282c-.218.544-.672.845-1.312.845zm3.244 0c-.947 0-1.529-.679-1.529-1.741s.582-1.741 1.529-1.741c.979 0 1.479.736 1.479 1.658v.262h-2.285v.109c0 .512.313.877.877.877.409 0 .684-.192.876-.499l.41.403c-.25.403-.736.672-1.357.672zm0-2.938c-.48 0-.806.359-.806.871v.044h1.549v-.064c0-.512-.282-.851-.743-.851zm3.307 2.938c-.627 0-1.037-.237-1.351-.627l.448-.41c.244.294.544.474.941.474.403 0 .608-.167.608-.448 0-.212-.128-.372-.473-.416l-.308-.039c-.678-.083-1.094-.377-1.094-.992 0-.646.506-1.024 1.235-1.024.602 0 .941.199 1.242.531l-.429.41a1.059 1.059 0 00-.813-.378c-.384 0-.563.167-.563.416 0 .256.16.372.512.429l.307.039c.73.108 1.056.428 1.056.966 0 .64-.518 1.069-1.318 1.069zm25.813-.077v-4.467h1.92c.819 0 1.299.531 1.299 1.344 0 .813-.48 1.344-1.299 1.344h-1.197v1.779h-.723zm.723-2.413h1.152c.365 0 .583-.198.583-.557v-.307c0-.358-.218-.557-.583-.557h-1.152v1.421zm4.419 2.49c-.928 0-1.53-.679-1.53-1.741s.602-1.741 1.53-1.741 1.529.679 1.529 1.741-.601 1.741-1.529 1.741zm0-.576c.473 0 .793-.295.793-.883v-.564c0-.588-.32-.883-.793-.883-.474 0-.794.295-.794.883v.564c0 .588.32.883.794.883zm2.307.499v-3.328h.697v.64h.032c.096-.339.384-.64.916-.64h.185v.672h-.275c-.55 0-.858.186-.858.531v2.125h-.697zm3.396 0c-.48 0-.736-.269-.736-.723v-2.035h-.518v-.57h.282c.23 0 .307-.096.307-.326v-.583h.627v.909h.698v.57h-.698v2.188h.646v.57h-.608zm1.552-2.758h-.506v-.57h.506v-.55c0-.538.288-.858.844-.858h.551v.57h-.698v.838h.698v.57h-.698v2.758h-.697v-2.758zm3.282 2.835c-.928 0-1.529-.679-1.529-1.741s.601-1.741 1.529-1.741c.928 0 1.53.679 1.53 1.741s-.602 1.741-1.53 1.741zm0-.576c.474 0 .794-.295.794-.883v-.564c0-.588-.32-.883-.794-.883-.473 0-.793.295-.793.883v.564c0 .588.32.883.793.883zm3.018.499c-.474 0-.711-.262-.711-.691v-4.045h.698v4.166h.461v.57h-.448zm1.466-3.923c-.288 0-.416-.154-.416-.365v-.109c0-.211.128-.365.416-.365s.41.154.41.365v.109c0 .211-.122.365-.41.365zm-.352.595h.698v3.328h-.698v-3.328zm3 3.405c-.928 0-1.53-.679-1.53-1.741s.602-1.741 1.53-1.741 1.529.679 1.529 1.741-.601 1.741-1.529 1.741zm0-.576c.473 0 .793-.295.793-.883v-.564c0-.588-.32-.883-.793-.883-.474 0-.794.295-.794.883v.564c0 .588.32.883.794.883z"/><path fill="#707A8A" d="M232.08 487.112v-.332a1.28 1.28 0 00-1.28-1.28h-8.576c-.312 0-.624-.312-.624-.676 0-.364.312-.624.624-.624h7.264a.64.64 0 100-1.28h-7.264c-.884 0-1.664.78-1.664 1.664v9.856h10.24a1.28 1.28 0 001.28-1.28v-6.048zm-1.92 1.568a1.28 1.28 0 100 2.56 1.28 1.28 0 000-2.56z" clip-rule="evenodd" fill-rule="evenodd"/><path fill="#181A20" d="M10 507.24h240V529H10z"/><path fill="#707A8A" d="M173.975 482.92l-2.055 2.122 4.16 4.278 4.16-4.278-2.055-2.122h-4.21z"/><path fill="#707A8A" d="M180.24 494.44a3.2 3.2 0 100-6.4 3.2 3.2 0 000 6.4zm0-4.558l-1.358 1.358 1.358 1.358 1.358-1.358-1.358-1.358z" clip-rule="evenodd" fill-rule="evenodd"/><circle fill="#707A8A" r="1.28" cy="484.2" cx="182.16"/><circle fill="#707A8A" r="1.92" cy="492.52" cx="173.84"/><rect fill="#FCD535" transform="rotate(-45 114.96 492.52)" rx="5.12" height="21.12" width="21.12" y="492.52" x="114.96"/><g clip-path="url(#clip2_4206_116534)" fill="#202630"><path d="M128.418 492.754a.633.633 0 01-.865.002l-2.993-2.793.926-.863 2.076-1.938a.632.632 0 01.862.923l-1.356 1.266h7.12a.613.613 0 010 1.225h-7.12l1.348 1.253c.268.25.27.674.002.925zm3.168-.468a.632.632 0 01.865-.001l2.989 2.792-.926.863-2.072 1.938a.632.632 0 01-.862-.923l1.357-1.266h-7.125a.612.612 0 110-1.224h7.125l-1.349-1.254a.633.633 0 01-.002-.925z"/></g><path fill="#333B47" d="M10 475.88h240v.64H10v-.64z" clip-rule="evenodd" fill-rule="evenodd"/></g><defs><linearGradient gradientUnits="userSpaceOnUse" y2="46.108" x2="24.836" y1="50.996" x1="29.724" id="paint0_linear_4206_116534"><stop stop-color="#F0B90B"/><stop stop-color="#F8D33A" offset="1"/></linearGradient><linearGradient gradientUnits="userSpaceOnUse" y2="193.748" x2="201.123" y1="173.211" x1="201.123" id="paint1_linear_4206_116534"><stop stop-color="#F0B90B"/><stop stop-color="#F8D33A" offset="1"/></linearGradient><linearGradient gradientUnits="userSpaceOnUse" y2="193.748" x2="201.123" y1="173.211" x1="201.123" id="paint2_linear_4206_116534"><stop stop-color="#F0B90B"/><stop stop-color="#F8D33A" offset="1"/></linearGradient><linearGradient gradientUnits="userSpaceOnUse" y2="193.748" x2="201.123" y1="173.211" x1="201.123" id="paint3_linear_4206_116534"><stop stop-color="#F0B90B"/><stop stop-color="#F8D33A" offset="1"/></linearGradient><linearGradient gradientUnits="userSpaceOnUse" y2="193.748" x2="201.123" y1="173.211" x1="201.123" id="paint4_linear_4206_116534"><stop stop-color="#F0B90B"/><stop stop-color="#F8D33A" offset="1"/></linearGradient><linearGradient gradientUnits="userSpaceOnUse" y2="193.748" x2="201.123" y1="173.211" x1="201.123" id="paint5_linear_4206_116534"><stop stop-color="#F0B90B"/><stop stop-color="#F8D33A" offset="1"/></linearGradient><linearGradient gradientUnits="userSpaceOnUse" y2="193.748" x2="201.123" y1="173.211" x1="201.123" id="paint6_linear_4206_116534"><stop stop-color="#F0B90B"/><stop stop-color="#F8D33A" offset="1"/></linearGradient><linearGradient gradientUnits="userSpaceOnUse" y2="193.748" x2="201.123" y1="173.211" x1="201.123" id="paint7_linear_4206_116534"><stop stop-color="#F0B90B"/><stop stop-color="#F8D33A" offset="1"/></linearGradient><linearGradient gradientUnits="userSpaceOnUse" y2="193.748" x2="201.123" y1="173.211" x1="201.123" id="paint8_linear_4206_116534"><stop stop-color="#F0B90B"/><stop stop-color="#F8D33A" offset="1"/></linearGradient><linearGradient gradientUnits="userSpaceOnUse" y2="193.748" x2="201.123" y1="173.211" x1="201.123" id="paint9_linear_4206_116534"><stop stop-color="#F0B90B"/><stop stop-color="#F8D33A" offset="1"/></linearGradient><linearGradient gradientUnits="userSpaceOnUse" y2="193.748" x2="201.123" y1="173.211" x1="201.123" id="paint10_linear_4206_116534"><stop stop-color="#F0B90B"/><stop stop-color="#F8D33A" offset="1"/></linearGradient><linearGradient gradientUnits="userSpaceOnUse" y2="186.964" x2="197.845" y1="133.896" x1="197.719" id="paint11_linear_4206_116534"><stop stop-color="#fff"/><stop stop-color="#FCE892" offset="1"/></linearGradient><linearGradient gradientUnits="userSpaceOnUse" y2="373.566" x2="129.631" y1="256.68" x1="130" id="paint12_linear_4206_116534"><stop stop-color="#302F2E"/><stop stop-color="#181A20" offset="1"/></linearGradient><clipPath id="clip0_4206_116534"><rect fill="#fff" rx="32" height="520" width="240" y="9" x="10"/></clipPath><clipPath id="clip1_4206_116534"><rect fill="#fff" rx="6.4" height="101.76" width="220.8" y="256.68" x="19.6"/></clipPath><clipPath id="clip2_4206_116534"><path transform="translate(123.28 486.12)" fill="#fff" d="M0 0h12.8v12.8H0z"/></clipPath><filter color-interpolation-filters="sRGB" filterUnits="userSpaceOnUse" height="9.604" width="12.814" y="165.838" x="187.632" id="filter0_d_4206_116534"><feFlood result="BackgroundImageFix" flood-opacity="0"/><feColorMatrix result="hardAlpha" values="0 0 0 0 0 0 0 0 0 0 0 0 0 0 0 0 0 0 127 0" in="SourceAlpha"/><feOffset dy=".22"/><feColorMatrix values="0 0 0 0 0.973954 0 0 0 0 0.828837 0 0 0 0 0.226047 0 0 0 1 0"/><feBlend result="effect1_dropShadow_4206_116534" in2="BackgroundImageFix"/><feBlend result="shape" in2="effect1_dropShadow_4206_116534" in="SourceGraphic"/></filter></defs></svg>